<?xml version="1.0" encoding="utf-8"?>
<!-- Generator: Adobe Illustrator 24.0.1, SVG Export Plug-In . SVG Version: 6.00 Build 0)  -->
<svg version="1.1" id="Capa_1" xmlns="http://www.w3.org/2000/svg" xmlns:xlink="http://www.w3.org/1999/xlink" x="0px" y="0px"
	 viewBox="0 0 128 128" style="enable-background:new 0 0 128 128;" xml:space="preserve">
<g id="surface1">
	<path d="M88.7,76C104,54.3,98.9,24.2,77.2,8.9S25.5-1.4,10.1,20.3C-5.3,42-0.1,72.1,21.6,87.4c15.5,11,36,11.8,52.3,2.2l35.5,35.3
		c3.8,4,10.2,4.2,14.2,0.4c4-3.8,4.2-10.2,0.4-14.2c-0.1-0.1-0.2-0.2-0.4-0.4L88.7,76z M49.4,79.2c-17.1,0-31-13.9-31.1-31
		c0-17.1,13.9-31,31-31.1c17.1,0,31,13.9,31,31C80.4,65.3,66.5,79.2,49.4,79.2C49.4,79.2,49.4,79.2,49.4,79.2z"/>
</g>
</svg>
