<?xml version="1.0" encoding="utf-8"?>
<!-- Generator: Adobe Illustrator 24.0.1, SVG Export Plug-In . SVG Version: 6.00 Build 0)  -->
<svg version="1.1" id="Capa_1" xmlns="http://www.w3.org/2000/svg" xmlns:xlink="http://www.w3.org/1999/xlink" x="0px" y="0px"
	 viewBox="0 0 128 128" style="enable-background:new 0 0 128 128;" xml:space="preserve">
<g>
	<path d="M65.6,61.1c-2.5-0.5-5.1-0.9-7.5-1.9c-0.6-0.3-1.4-0.7-1.9-1.1c-0.7-0.6-0.9-0.8-1.2-1.3c0-0.1-0.2-0.4-0.3-0.5
		c0-0.1-0.1-0.3-0.1-0.4c0-0.1-0.1-0.2-0.1-0.3c0-0.1-0.1-0.4-0.1-0.5c-0.1-1.5-0.1-1.3,0.3-2.7c0.2-0.6,0.9-1.7,1.7-2.4
		c1.7-1.3,3.9-1.8,6.1-1.9c3.4-0.2,6.8,0.5,9.3,3c0.5,0.5,0.9,1.2,1.3,2c0,0,0.3,0.7,0.3,0.9c0.9,3.9,6.9,2.3,6-1.6
		c-1.3-5.9-6.6-9.3-12.4-10.4c0-1.7,0-3.4,0-5c0-4-6.2-4-6.2,0c0,1.6,0,3.3,0,4.9C54,42.9,48.1,47,48.2,54.4
		c0,8.6,8.6,11.5,15.8,12.7c2.2,0.4,4.5,0.9,6.6,1.9c1.2,0.6,2.4,1.7,2.8,2.5c1.5,3.7-0.1,6.9-3.6,8.7c-3.1,1.6-7,1.1-10.2,0.2
		c-3.8-1-6.2-3.4-7.1-7.2c-0.9-3.9-6.9-2.3-6,1.6C48,81.9,54.1,86,60.8,87.1c0,1.8,0,3.5,0,5.3c0,4,6.2,4,6.2,0c0-1.7,0-3.5,0-5.2
		c0.6-0.1,1.2-0.2,1.8-0.3c4.9-0.9,9.2-4.3,10.8-9c1.2-3.6,0.2-8.4-2.2-11.3C74.5,63.2,69.8,61.9,65.6,61.1z"/>
	<path d="M64,128c35.3,0,64-28.7,64-64c0-35.3-28.7-64-64-64C28.7,0,0,28.7,0,64C0,99.3,28.7,128,64,128z M108.7,27.5l-6.3,6.3
		c-2-2.5-4.2-4.9-6.7-6.9l6.2-6.2C104.5,22.7,106.7,25,108.7,27.5z M106.8,64c0,23.6-19.2,42.8-42.8,42.8
		c-23.6,0-42.8-19.2-42.8-42.8S40.4,21.2,64,21.2C87.6,21.2,106.8,40.4,106.8,64z M64,6.2c12.3,0,23.7,3.9,33.1,10.5L90.8,23
		c-7.7-5-16.9-8-26.8-8c-27,0-49,22-49,49s22,49,49,49c27,0,49-22,49-49c0-9.2-2.5-17.7-6.9-25.1l6.4-6.4c5.9,9.1,9.3,19.9,9.3,31.5
		c0,31.9-25.9,57.8-57.8,57.8C32.1,121.8,6.2,95.9,6.2,64C6.2,32.1,32.1,6.2,64,6.2z"/>
</g>
</svg>
