<?xml version="1.0" encoding="utf-8"?>
<!-- Generator: Adobe Illustrator 24.0.1, SVG Export Plug-In . SVG Version: 6.00 Build 0)  -->
<svg version="1.1" id="Capa_1" xmlns="http://www.w3.org/2000/svg" xmlns:xlink="http://www.w3.org/1999/xlink" x="0px" y="0px"
	 viewBox="0 0 128 128" style="enable-background:new 0 0 128 128;" xml:space="preserve">
<g>
	<path d="M66.1,99.2c0-2.5,0-4.9,0-7.4c7.5-0.7,15.1-4.9,16.1-12.8c0.4-3.3-0.2-7.1-2-10c-2-3.2-5.5-5.1-9-6.3
		c-4.9-1.8-10.2-1.9-15.2-3.8c-1.3-0.5-2.7-1.2-3.7-2.1c-0.3-0.2-1.1-1.2-1-1c-0.2-0.3-0.7-1.4-0.7-1.2c-0.2-0.5-0.3-1-0.4-1.5
		c0,0,0,0,0,0c0-0.1,0-0.1,0-0.3c0-0.3,0-0.5,0-0.8c0-1.5,0-1.7,0.6-3.3c0,0,0.6-1.1,0.8-1.5c0.3-0.5,1-1.2,1.6-1.7
		c1.7-1.5,4.1-2,6.3-2.3c4.8-0.8,10.3,0.1,13.8,3.6c0.9,0.9,1.5,1.8,2.2,3.2c0,0.1,0,0.1,0.1,0.1c0,0,0,0,0,0.1
		c0.1,0.2,0.1,0.4,0.2,0.5c0.1,0.2,0.1,0.3,0.1,0.5c0.8,3.6,6.4,2.1,5.6-1.5c-1.1-4.7-5.1-8.7-9.3-10.6c-1.9-0.8-4-1.4-6.2-1.7
		c0-2.4,0-4.7,0-7.1c0-3.7-5.8-3.8-5.8,0c0,2.3,0,4.6,0,6.9c-4.8,0.4-9.5,2.2-12.5,5.8c-3.3,3.9-4.2,9.5-2.2,14.2
		C49,65,59.5,65.7,66.5,67.3c3.8,0.9,8.3,2.5,9.5,6c1.5,4.3,0,8.4-3.9,10.8c-4.3,2.6-9.7,2.3-14.4,1.1c-5.1-1.3-8.6-4.6-9.8-9.7
		c-0.9-3.6-6.4-2.1-5.6,1.5c1.1,4.6,3.6,8.4,7.6,11.1c3.1,2.1,6.8,3,10.5,3.5c0,2.5,0,5,0,7.6C60.3,102.9,66.1,102.9,66.1,99.2z"/>
	<path d="M3,42.1c0.3,2.3,2.2,3.5,4.4,2.5c5.9-2.8,11.8-5.5,17.7-8.3c3.4-1.6,0.4-6.5-2.9-5c-3.2,1.5-6.5,3-9.7,4.5
		C20.9,20.7,35.8,9.8,53.2,6.6c18.4-3.4,37.6,2.8,50.9,15.8c11.1,10.8,17.3,25.9,17.4,41.4c0,3.7,5.8,3.8,5.8,0
		c-0.1-18.7-8.4-36.7-22.7-48.8C89.8,2.5,70-2.4,51.1,1.1C32.8,4.5,16.8,16.5,7.7,32.6c-0.4-3.3-0.8-6.5-1.1-9.8
		c-0.2-1.6-1.2-2.9-2.9-2.9c-1.4,0-3.1,1.3-2.9,2.9C1.5,29.2,2.3,35.7,3,42.1z"/>
	<path d="M125,85.9c-0.3-2.3-2.2-3.5-4.4-2.5c-5.9,2.8-11.8,5.5-17.7,8.3c-3.4,1.6-0.4,6.5,2.9,5c3.2-1.5,6.5-3,9.7-4.5
		c-8.5,15.3-23.3,26.1-40.7,29.4c-18.4,3.4-37.6-2.8-50.9-15.8C12.8,94.8,6.6,79.7,6.6,64.2c0-3.7-5.8-3.8-5.8,0
		c0.1,18.7,8.4,36.7,22.7,48.8c14.8,12.5,34.5,17.4,53.4,13.9c18.3-3.4,34.3-15.4,43.4-31.5c0.4,3.3,0.8,6.5,1.1,9.8
		c0.2,1.6,1.2,2.9,2.9,2.9c1.4,0,3.1-1.3,2.9-2.9C126.5,98.8,125.7,92.3,125,85.9z"/>
</g>
</svg>
