<?xml version="1.0" encoding="utf-8"?>
<!-- Generator: Adobe Illustrator 24.0.1, SVG Export Plug-In . SVG Version: 6.00 Build 0)  -->
<svg version="1.1" id="Capa_1" xmlns="http://www.w3.org/2000/svg" xmlns:xlink="http://www.w3.org/1999/xlink" x="0px" y="0px"
	 viewBox="0 0 128 128" style="enable-background:new 0 0 128 128;" xml:space="preserve">
<style type="text/css">
	.st0{fill:#CACFE6;}
	.st1{fill:#EEF4FF;}
	.st2{fill:#41434C;}
	.st3{fill:url(#SVGID_1_);}
	.st4{fill:url(#SVGID_2_);}
	.st5{fill:url(#SVGID_3_);}
</style>
<g>
	<g>
		<path class="st0" d="M123.1,22c0-2.2-1.8-4-4-4H62.3c-2.2,0-4,1.8-4,4v3.5l64.7,0V22z"/>
		<path class="st1" d="M123.1,54l0-21.4H58.3v9.7c0.7-2,1.8-3.8,3.3-5.3c2.7-2.6,6.2-4,10.1-4c4,0,7.5,1.4,10.1,4.1
			c2.6,2.7,4,6.2,4,10.1c0,2.4-0.5,4.6-1.5,6.6c0.9,1.2,1.5,2.6,1.5,4.3v0h33.2C121.3,58,123.1,56.2,123.1,54z M102.8,54.4
			c-2,0-3.5-1.6-3.5-3.5c0-2,1.6-3.5,3.5-3.5c2,0,3.5,1.6,3.5,3.5C106.3,52.8,104.7,54.4,102.8,54.4z M113.1,54.4
			c-2,0-3.5-1.6-3.5-3.5c0-2,1.6-3.5,3.5-3.5c2,0,3.5,1.6,3.5,3.5C116.6,52.8,115,54.4,113.1,54.4z"/>
	</g>
	<path class="st2" d="M119.1,13.1H62.3c-4.9,0-8.9,4-8.9,8.9v26c1.8,1.4,3.5,2.9,4.9,4.7v-0.7c-0.5-1.5-0.8-3.1-0.8-4.8
		c0-1.7,0.3-3.3,0.8-4.8v-9.7h64.7l0,21.4c0,2.2-1.8,4-4,4H85.9v4.9h33.2c4.9,0,8.9-4,8.9-8.9V22C128,17.1,124,13.1,119.1,13.1z
		 M123.1,25.6l-64.7,0V22c0-2.2,1.8-4,4-4h56.8c2.2,0,4,1.8,4,4V25.6z"/>
	<g>
		<path class="st2" d="M82.5,53.9c1.2-2,1.9-4.3,1.9-6.8c0-3.6-1.2-6.7-3.6-9c-2.4-2.4-5.5-3.6-9-3.6c-3.5,0-6.7,1.2-9,3.6
			c-2.4,2.4-3.6,5.5-3.6,9.1c0,2.5,0.7,4.9,1.9,6.8c-0.8,0.7-1.4,1.6-1.6,2.6c-2.7-4.2-6.4-7.5-11-10c-4.9-2.6-10.3-3.9-16.2-3.9
			c-6,0-11.4,1.3-16.3,3.9c-4.9,2.6-8.8,6.4-11.6,11C1.4,62.2,0,67.5,0,73.3c0,5.8,1.4,11.1,4.2,15.8c2.8,4.7,6.7,8.5,11.6,11.1
			c5.1,2.8,11,4.1,17.3,4c2.3,3.1,5.3,5.6,8.9,7.5c4.2,2.1,9.1,3.2,14.5,3.2c5.4,0,10.2-1.1,14.4-3.2c4.3-2.2,7.7-5.4,10.1-9.5
			c2.1-3.7,3.3-7.9,3.4-12.6c0-0.6-0.1-1.3-0.3-1.9c0.2-0.6,0.3-1.1,0.3-1.7V58C84.4,56.4,83.6,54.9,82.5,53.9z M73.6,80.6h-3.8
			V63.3h3.8V80.6z M70.3,45.7c0.2-0.2,0.5-0.5,1.5-0.5c1,0,1.3,0.3,1.4,0.4c0.2,0.2,0.5,0.5,0.5,1.5c0,1-0.3,1.3-0.5,1.5
			C73,48.7,72.7,49,71.8,49c-1,0-1.3-0.3-1.5-0.5c-0.2-0.2-0.5-0.5-0.5-1.4C69.8,46.1,70.1,45.8,70.3,45.7z M71.6,96.8
			c-1.3,2.3-3.2,4-5.7,5.3c-2.6,1.3-5.8,2-9.5,2c-3.7,0-6.9-0.7-9.6-2c-2.5-1.3-4.5-3-5.8-5.3c-0.1-0.2-0.2-0.3-0.3-0.6
			c-0.9-1.8-2.8-2.9-4.7-2.9c-0.2,0-0.4,0-0.6,0c-1,0.1-2.1,0.2-3.2,0.2c-4.2,0-7.9-0.9-11.2-2.7c-3.2-1.8-5.7-4.1-7.5-7.2
			c-1.8-3.1-2.7-6.5-2.7-10.4c0-3.8,0.9-7.2,2.7-10.2c1.8-3,4.3-5.4,7.5-7.1c3.3-1.8,7-2.6,11.2-2.6c4.2,0,7.8,0.9,11.1,2.6
			c3.2,1.7,5.7,4.1,7.5,7.1c1.8,3,2.7,6.4,2.7,10.2c0,3.9-0.9,7.3-2.7,10.4C49.5,85.7,48,87.5,46,89c-2.1,1.6-2.7,4.5-1.4,6.9
			c0.6,1,1.2,1.9,2,2.7c2.6,2.7,6,4.2,9.8,4.2s7.2-1.5,9.7-4.3c1-1.1,1.8-2.4,2.4-3.8h4C72.3,95.4,72,96.1,71.6,96.8z"/>
		<path class="st2" d="M47.2,82.6c1.4-2.8,2.1-5.9,2.1-9.2c0-3.3-0.7-6.4-2.1-9.2c-1.5-2.9-3.5-5.2-6-6.9c-2.7-1.7-5.6-2.6-8.8-2.6
			c-3.2,0-6.1,0.9-8.9,2.6c-2.6,1.7-4.7,3.9-6.3,6.8c-1.5,2.8-2.3,5.9-2.3,9.3c0,3.4,0.8,6.5,2.3,9.3c1.5,2.9,3.6,5.2,6.2,6.8
			c0,0,0,0,0,0c0,0,0,0,0,0c2.7,1.8,5.7,2.6,8.9,2.6c3.2,0,6.1-0.9,8.8-2.7C43.7,87.7,45.7,85.4,47.2,82.6z M37.6,77.7
			c-0.6,1.2-1.4,2.1-2.4,2.8c-0.9,0.6-1.8,0.9-2.9,0.9c-1.1,0-2.1-0.3-3.1-0.9c0,0,0,0,0,0c-1.1-0.7-1.9-1.6-2.6-2.9
			c-0.7-1.3-1-2.7-1-4.3c0-1.6,0.3-3,1-4.2c0.7-1.2,1.5-2.1,2.6-2.8c1-0.6,2-0.9,3.1-0.9c1.1,0,2,0.3,2.9,0.9c1,0.6,1.8,1.5,2.4,2.7
			c0.6,1.3,1,2.7,1,4.3C38.6,75,38.3,76.4,37.6,77.7z"/>
	</g>
	<g>
		<ellipse class="st2" cx="102.8" cy="50.8" rx="3.5" ry="3.5"/>
		<ellipse class="st2" cx="113.1" cy="50.8" rx="3.5" ry="3.5"/>
	</g>
	<g>
		<linearGradient id="SVGID_1_" gradientUnits="userSpaceOnUse" x1="16.8428" y1="101.9796" x2="56.5693" y2="62.2531">
			<stop  offset="0" style="stop-color:#323DFF"/>
			<stop  offset="1" style="stop-color:#00CDFE"/>
		</linearGradient>
		<path class="st3" d="M71.8,54.4c2.1,0,3.9-0.7,5.2-2c1.3-1.4,2-3.1,2-5.2c0-2.1-0.7-3.9-2-5.2c-1.3-1.4-3.1-2-5.2-2
			c-2.1,0-3.9,0.7-5.3,2c-1.4,1.4-2.1,3.1-2.1,5.2c0,2.1,0.7,3.9,2.1,5.2C67.9,53.7,69.6,54.4,71.8,54.4z"/>
		<linearGradient id="SVGID_2_" gradientUnits="userSpaceOnUse" x1="29.2624" y1="114.3992" x2="68.9889" y2="74.6727">
			<stop  offset="0" style="stop-color:#323DFF"/>
			<stop  offset="1" style="stop-color:#00CDFE"/>
		</linearGradient>
		<rect x="64.4" y="58" class="st4" width="14.6" height="27.9"/>
		<linearGradient id="SVGID_3_" gradientUnits="userSpaceOnUse" x1="18.6017" y1="103.7385" x2="58.3282" y2="64.012">
			<stop  offset="0" style="stop-color:#323DFF"/>
			<stop  offset="1" style="stop-color:#00CDFE"/>
		</linearGradient>
		<path class="st5" d="M62.2,94.9c-1.5,1.7-3.4,2.5-5.7,2.5c-2.4,0-4.4-0.8-5.9-2.5c-0.5-0.5-0.9-1.1-1.2-1.6
			c2.4-1.9,4.5-4.2,6.1-6.9c2.3-3.9,3.5-8.3,3.5-13.1c0-4.8-1.2-9.1-3.5-13c-2.3-3.8-5.5-6.9-9.6-9.1c-4.1-2.2-8.6-3.3-13.7-3.3
			c-5.1,0-9.7,1.1-13.7,3.3c-4.1,2.2-7.2,5.2-9.6,9.1c-2.3,3.8-3.5,8.2-3.5,13c0,4.8,1.2,9.2,3.5,13.1c2.3,3.9,5.5,6.9,9.6,9.2
			c4.1,2.2,8.6,3.3,13.7,3.3c1.3,0,2.6-0.1,3.8-0.2c0.1,0.3,0.3,0.6,0.5,0.8c1.9,3.2,4.6,5.7,8,7.4c3.5,1.7,7.5,2.6,12,2.6
			c4.5,0,8.5-0.9,11.9-2.6c3.4-1.7,6-4.2,7.9-7.4c1.7-2.9,2.6-6.3,2.7-10.1H64.4C64.2,91.6,63.5,93.5,62.2,94.9z M42.4,80.1
			c-1,2-2.4,3.6-4.2,4.8c-1.8,1.2-3.7,1.8-5.8,1.8c-2.1,0-4.1-0.6-6-1.8c-1.8-1.2-3.3-2.8-4.4-4.9c-1.1-2.1-1.6-4.3-1.6-6.8
			c0-2.5,0.5-4.7,1.6-6.7c1.1-2,2.6-3.6,4.4-4.8c1.8-1.2,3.8-1.7,6-1.7c2.1,0,4.1,0.6,5.9,1.7c1.8,1.2,3.2,2.8,4.2,4.8
			c1,2,1.5,4.3,1.5,6.7C43.9,75.8,43.4,78.1,42.4,80.1z"/>
	</g>
</g>
</svg>
