<?xml version="1.0" encoding="utf-8"?>
<!-- Generator: Adobe Illustrator 24.0.1, SVG Export Plug-In . SVG Version: 6.00 Build 0)  -->
<svg version="1.1" id="Capa_1" xmlns="http://www.w3.org/2000/svg" xmlns:xlink="http://www.w3.org/1999/xlink" x="0px" y="0px"
	 viewBox="0 0 128 128" style="enable-background:new 0 0 128 128;" xml:space="preserve">
<style type="text/css">
	.st0{fill:#EEF4FF;}
	.st1{fill:#CACFE6;}
	.st2{fill:url(#SVGID_1_);}
	.st3{fill:#41434C;}
</style>
<g>
	<path class="st0" d="M98.7,36h-80C10.6,36,4,29.4,4,21.3S10.6,6.7,18.7,6.7h80c8.1,0,14.7,6.6,14.7,14.7S106.8,36,98.7,36z"/>
	<path class="st1" d="M98.7,65.3h-80C10.6,65.3,4,58.8,4,50.7S10.6,36,18.7,36h80c8.1,0,14.7,6.6,14.7,14.7S106.8,65.3,98.7,65.3z"
		/>
	<path class="st0" d="M98.7,94.7h-80C10.6,94.7,4,88.1,4,80s6.6-14.7,14.7-14.7h80c8.1,0,14.7,6.6,14.7,14.7S106.8,94.7,98.7,94.7z"
		/>
	<linearGradient id="SVGID_1_" gradientUnits="userSpaceOnUse" x1="62.9278" y1="115.225" x2="107.2284" y2="70.9244">
		<stop  offset="0" style="stop-color:#323DFF"/>
		<stop  offset="1" style="stop-color:#00CDFE"/>
	</linearGradient>
	<path class="st2" d="M122.2,63.4l-25-8.5c-0.7-0.3-1.6-0.3-2.3,0l-25,8.5c-1.5,0.5-2.4,1.9-2.4,3.4v19.1
		c0,23.4,26.1,34.7,27.2,35.2c0.9,0.4,1.9,0.4,2.8,0c1.1-0.5,27.2-11.8,27.2-35.2V66.7C124.6,65.2,123.6,63.9,122.2,63.4L122.2,63.4
		z"/>
	<path class="st3" d="M98.7,40h-80C8.4,40,0,31.6,0,21.3S8.4,2.7,18.7,2.7h80c10.3,0,18.7,8.4,18.7,18.7S109,40,98.7,40z M18.7,10.7
		C12.8,10.7,8,15.4,8,21.3S12.8,32,18.7,32h80c5.9,0,10.7-4.8,10.7-10.7s-4.8-10.7-10.7-10.7H18.7z"/>
	<circle class="st3" cx="26.7" cy="21.3" r="5.3"/>
	<circle class="st3" cx="48" cy="21.3" r="5.3"/>
	<path class="st3" d="M49.3,69.3H18.7C8.4,69.3,0,61,0,50.7c0-5,2-9.8,5.5-13.2C8.9,34,13.7,32,18.7,32h80c5.2,0,10.1,2.2,13.6,6
		c1.5,1.6,1.4,4.2-0.3,5.7c-1.6,1.5-4.2,1.4-5.7-0.3c-1.9-2.1-4.7-3.3-7.6-3.3h-80c-2.9,0-5.5,1.1-7.5,3.1c-2.1,2-3.2,4.7-3.2,7.5
		c0,5.9,4.8,10.7,10.7,10.7h30.7c2.2,0,4,1.8,4,4S51.5,69.3,49.3,69.3L49.3,69.3z"/>
	<circle class="st3" cx="26.7" cy="50.7" r="5.3"/>
	<circle class="st3" cx="48" cy="50.7" r="5.3"/>
	<path class="st3" d="M49.3,98.7H18.7C8.4,98.7,0,90.3,0,80c0-5,2-9.8,5.5-13.2c3.4-3.5,8.2-5.5,13.2-5.5h28c2.2,0,4,1.8,4,4
		c0,2.2-1.8,4-4,4h-28c-2.9,0-5.5,1.1-7.5,3.1C9.1,74.5,8,77.1,8,80c0,5.9,4.8,10.7,10.7,10.7h30.7c2.2,0,4,1.8,4,4
		C53.3,96.9,51.5,98.7,49.3,98.7z"/>
	<circle class="st3" cx="26.7" cy="80" r="5.3"/>
	<circle class="st3" cx="48" cy="80" r="5.3"/>
	<path class="st3" d="M96,125.3c-0.6,0-1.1-0.1-1.6-0.3C93.1,124.4,64,111.2,64,84.2v-21c0-1.8,1.1-3.3,2.8-3.8l28-8.6
		c0.8-0.2,1.6-0.2,2.3,0l28,8.6c1.7,0.5,2.8,2.1,2.8,3.8v21c0,27.1-29.1,40.3-30.4,40.8C97.1,125.2,96.6,125.3,96,125.3L96,125.3z
		 M72,66.2v18c0,18.6,18.4,29.7,24,32.7c5.6-3,24-14.1,24-32.7v-18l-24-7.3L72,66.2z"/>
	<path class="st0" d="M93.3,98.7c-1.1,0-2.1-0.4-2.8-1.2l-9.3-9.3c-1.6-1.6-1.6-4.1,0-5.7c1.6-1.6,4.1-1.6,5.7,0l6.4,6.4l14.5-15.6
		c1.5-1.6,4-1.7,5.7-0.2c1.6,1.5,1.7,4,0.2,5.7L96.3,97.4C95.5,98.2,94.5,98.6,93.3,98.7C93.4,98.7,93.4,98.7,93.3,98.7L93.3,98.7z"
		/>
</g>
</svg>
