<?xml version="1.0" encoding="utf-8"?>
<!-- Generator: Adobe Illustrator 24.0.1, SVG Export Plug-In . SVG Version: 6.00 Build 0)  -->
<svg version="1.1" id="Capa_1" xmlns="http://www.w3.org/2000/svg" xmlns:xlink="http://www.w3.org/1999/xlink" x="0px" y="0px"
	 viewBox="0 0 128 128" style="enable-background:new 0 0 128 128;" xml:space="preserve">
<g>
	<path d="M68.4,58.3c-10.1-2.6-12.5-3.8-12.5-7.6v-0.2c0-2.8,2.6-5.1,7.5-5.1c4,0,8,1.4,12.2,3.9c1,0.6,2,0.9,3.2,0.9
		c3.3,0,6-2.6,6-5.9c0-2.5-1.4-4.2-2.8-5.1c-3.7-2.3-7.8-3.9-12.4-4.6v-4.4c0-3.1-2.5-5.5-5.5-5.5c-3.1,0-5.5,2.5-5.5,5.5v4.3
		c-9.2,1.7-15.4,8-15.4,17v0.2c0,11.6,7.6,14.8,19.3,17.8c9.7,2.5,11.7,4.2,11.7,7.4v0.2c0,3.4-3.2,5.5-8.4,5.5
		c-5.7,0-10.5-2-14.9-5.2c-0.8-0.6-2-1.2-3.7-1.2c-3.3,0-6,2.6-6,5.9c0,2,1,3.8,2.4,4.8c4.5,3.2,9.6,5.3,14.9,6.3v4.6
		c0,3.1,2.5,5.5,5.5,5.5c3.1,0,5.5-2.5,5.5-5.5v-4.1c10.3-1.3,17.3-7.5,17.3-17.8v-0.2C86.8,65.6,80.2,61.3,68.4,58.3z"/>
	<path d="M64,15.2c27,0,48.8,21.9,48.8,48.8S91,112.8,64,112.8S15.2,91,15.2,64S37,15.2,64,15.2 M64,0c-8.6,0-17,1.7-24.9,5
		c-7.6,3.2-14.5,7.8-20.3,13.7C12.9,24.6,8.3,31.5,5,39.1C1.7,47,0,55.4,0,64s1.7,17,5,24.9c3.2,7.6,7.8,14.5,13.7,20.3
		c5.9,5.9,12.7,10.5,20.3,13.7c7.9,3.3,16.3,5,24.9,5s17-1.7,24.9-5c7.6-3.2,14.5-7.8,20.3-13.7c5.9-5.9,10.5-12.7,13.7-20.3
		c3.3-7.9,5-16.3,5-24.9s-1.7-17-5-24.9c-3.2-7.6-7.8-14.5-13.7-20.3C103.4,12.9,96.5,8.3,88.9,5C81,1.7,72.6,0,64,0L64,0z"/>
</g>
</svg>
