<?xml version="1.0" encoding="utf-8"?>
<!-- Generator: Adobe Illustrator 24.0.1, SVG Export Plug-In . SVG Version: 6.00 Build 0)  -->
<svg version="1.1" id="Capa_1" xmlns="http://www.w3.org/2000/svg" xmlns:xlink="http://www.w3.org/1999/xlink" x="0px" y="0px"
	 viewBox="0 0 128 128" style="enable-background:new 0 0 128 128;" xml:space="preserve">
<g>
	<path d="M101.3,53.3H26.7c-2.9,0-5.3-2.4-5.3-5.3s2.4-5.3,5.3-5.3h74.7c2.9,0,5.3,2.4,5.3,5.3S104.3,53.3,101.3,53.3z"/>
	<path d="M64,74.7H26.7c-2.9,0-5.3-2.4-5.3-5.3s2.4-5.3,5.3-5.3H64c2.9,0,5.3,2.4,5.3,5.3S66.9,74.7,64,74.7z"/>
	<path d="M53.3,96H26.7c-2.9,0-5.3-2.4-5.3-5.3s2.4-5.3,5.3-5.3h26.7c2.9,0,5.3,2.4,5.3,5.3S56.3,96,53.3,96z"/>
	<path d="M98.7,69.3c-16.2,0-29.3,13.2-29.3,29.3S82.5,128,98.7,128S128,114.8,128,98.7S114.8,69.3,98.7,69.3z M113.9,94.3l-14.5,16
		c-1,1.1-2.3,1.7-3.8,1.7c0,0-0.1,0-0.1,0c-1.4,0-2.7-0.5-3.7-1.5l-8.1-8c-2.1-2.1-2.1-5.4-0.1-7.5c2.1-2.1,5.4-2.1,7.5-0.1l4.2,4.1
		L106,87.1c2-2.2,5.4-2.3,7.5-0.4C115.8,88.7,115.9,92.1,113.9,94.3L113.9,94.3z"/>
	<path d="M112,0H16C7.2,0,0,7.2,0,16v85.3c0,8.8,7.2,16,16,16h47.4c-1.8-3.3-3.1-6.9-3.9-10.7H16c-2.9,0-5.3-2.4-5.3-5.3V26.7h106.7
		v36.7c4.1,2.1,7.7,4.9,10.7,8.2V16C128,7.2,120.8,0,112,0z"/>
</g>
</svg>
