<?xml version="1.0" encoding="utf-8"?>
<!-- Generator: Adobe Illustrator 24.0.1, SVG Export Plug-In . SVG Version: 6.00 Build 0)  -->
<svg version="1.1" id="Capa_1" xmlns="http://www.w3.org/2000/svg" xmlns:xlink="http://www.w3.org/1999/xlink" x="0px" y="0px"
	 viewBox="0 0 128 128" style="enable-background:new 0 0 128 128;" xml:space="preserve">
<g>
	<path d="M121.6,93.8H6.4c-3.6,0-6.4,2.9-6.4,6.4c0,3.6,2.9,6.4,6.4,6.4h115.1c3.6,0,6.4-2.9,6.4-6.4
		C128,96.7,125.1,93.8,121.6,93.8z"/>
	<path d="M121.6,21.3H6.4c-3.6,0-6.4,2.9-6.4,6.4c0,3.6,2.9,6.4,6.4,6.4h115.1c3.6,0,6.4-2.9,6.4-6.4
		C128,24.2,125.1,21.3,121.6,21.3z"/>
	<path d="M48.9,70.7h72.7c3.6,0,6.4-2.9,6.4-6.4v0c0-3.6-2.9-6.4-6.4-6.4H48.9c-3.6,0-6.4,2.9-6.4,6.4v0
		C42.4,67.8,45.3,70.7,48.9,70.7z"/>
</g>
</svg>
