<?xml version="1.0" encoding="utf-8"?>
<!-- Generator: Adobe Illustrator 24.0.1, SVG Export Plug-In . SVG Version: 6.00 Build 0)  -->
<svg version="1.1" id="Capa_1" xmlns="http://www.w3.org/2000/svg" xmlns:xlink="http://www.w3.org/1999/xlink" x="0px" y="0px"
	 viewBox="0 0 128 128" style="enable-background:new 0 0 128 128;" xml:space="preserve">
<g>
	<g>
		<g>
			<path d="M118.9,36.6H9.1c-5,0-9.1,4.1-9.1,9.1v45.7h18.3v18.3c0,5,4.1,9.1,9.1,9.1h73.2c5.1,0,9.2-4.1,9.2-9.2V91.4H128V45.7
				C128,40.7,123.9,36.6,118.9,36.6z M18.3,54.9H9.1v-9.1h9.1V54.9z M100.6,109.7H27.4V64h73.1V109.7z"/>
		</g>
	</g>
	<g>
		<g>
			<path d="M21.3,9.2h85.4c1.7,0,3,1.4,3,3v12.1c0,1.7-1.4,3-3,3H21.3c-1.7,0-3-1.4-3-3V12.2C18.3,10.5,19.6,9.2,21.3,9.2z"/>
		</g>
	</g>
	<g>
		<g>
			<rect x="36.6" y="73.1" width="54.9" height="9.1"/>
		</g>
	</g>
	<g>
		<g>
			<rect x="36.6" y="91.4" width="54.9" height="9.1"/>
		</g>
	</g>
</g>
</svg>
