<?xml version="1.0" encoding="utf-8"?>
<!-- Generator: Adobe Illustrator 24.0.1, SVG Export Plug-In . SVG Version: 6.00 Build 0)  -->
<svg version="1.1" id="Capa_1" xmlns="http://www.w3.org/2000/svg" xmlns:xlink="http://www.w3.org/1999/xlink" x="0px" y="0px"
	 viewBox="0 0 128 128" style="enable-background:new 0 0 128 128;" xml:space="preserve">
<g>
	<path d="M124.1,0H58.6L33.9,24.7v20.8c-12.4,0-22.5,10.1-22.5,22.5s10.1,22.5,22.5,22.5S56.4,80.4,56.4,68c0-9.8-6.3-18.1-15-21.2
		V30h22.5V7.5h52.8v98H59.8c-5.2-9-14.9-15-26-15c-16.5,0-30,13.5-30,30v7.5h60v-7.5c0-2.6-0.3-5.1-0.9-7.5h61.2V0z M48.9,68
		c0,8.3-6.7,15-15,15s-15-6.7-15-15s6.7-15,15-15S48.9,59.7,48.9,68z M46.7,22.5l9.7-9.7v9.7H46.7z M11.4,120.5
		c0-12.4,10.1-22.5,22.5-22.5s22.5,10.1,22.5,22.5H11.4z"/>
	<path d="M90.1,53c-2.1,0-3.8-1.7-3.8-3.8h-7.5c0,4.9,3.1,9.1,7.5,10.6V68h7.5v-8.1c4.4-1.5,7.5-5.7,7.5-10.6c0-3-1.1-5.8-3.2-8
		c-2.1-2.2-5-3.5-8-3.5c-2,0-3.8-1.9-3.8-4c0-2.1,1.7-3.8,3.8-3.8s3.8,1.7,3.8,3.8h7.5c0-4.9-3.1-9.1-7.5-10.6V15h-7.5v8.1
		c-4.4,1.5-7.5,5.7-7.5,10.6c0,3,1.1,5.8,3.2,8c2.1,2.2,5,3.5,8,3.5c2,0,3.8,1.9,3.8,4C93.9,51.3,92.2,53,90.1,53z"/>
	<path d="M63.9,90.5h45.2V98H63.9V90.5z"/>
	<path d="M63.9,75.5h45.2V83H63.9V75.5z"/>
</g>
</svg>
