<?xml version="1.0" encoding="utf-8"?>
<!-- Generator: Adobe Illustrator 24.0.1, SVG Export Plug-In . SVG Version: 6.00 Build 0)  -->
<svg version="1.1" id="Capa_1" xmlns="http://www.w3.org/2000/svg" xmlns:xlink="http://www.w3.org/1999/xlink" x="0px" y="0px"
	 viewBox="0 0 128 128" style="enable-background:new 0 0 128 128;" xml:space="preserve">
<g>
	<g>
		<g>
			<path d="M125.6,80.5h-111c-1.3,0-2.4-1.1-2.4-2.4v-62c0-1.3,1.1-2.4,2.4-2.4h111c1.3,0,2.4,1.1,2.4,2.4v62
				C128,79.4,126.9,80.5,125.6,80.5z M17,75.6h106.2V18.5H17V75.6z"/>
		</g>
	</g>
	<g>
		<g>
			<path d="M14.5,68.4H2.4C1.1,68.4,0,67.3,0,66V4c0-1.3,1.1-2.4,2.4-2.4h111c1.3,0,2.4,1.1,2.4,2.4v12.1c0,1.3-1.1,2.4-2.4,2.4
				s-2.4-1.1-2.4-2.4V6.4H4.8v57.2h9.7c1.3,0,2.4,1.1,2.4,2.4S15.9,68.4,14.5,68.4z"/>
		</g>
	</g>
	<g>
		<g>
			<g>
				<path d="M70.1,72.4c-14,0-25.4-11.4-25.4-25.4c0-14,11.4-25.4,25.4-25.4c14,0,25.4,11.4,25.4,25.4
					C95.4,61.1,84.1,72.4,70.1,72.4z M70.1,26.5c-11.3,0-20.5,9.2-20.5,20.5s9.2,20.5,20.5,20.5c11.3,0,20.5-9.2,20.5-20.5
					S81.4,26.5,70.1,26.5z"/>
			</g>
		</g>
		<g>
			<g>
				<path d="M71.2,58.5H69c-3.8,0-7-3.1-7-7c0-1.3,1.1-2.4,2.4-2.4c1.3,0,2.4,1.1,2.4,2.4c0,1.2,1,2.1,2.1,2.1h2.3
					c1.1,0,2.1-0.9,2.1-2.1v-0.2c0-1.1-0.9-2.1-2.1-2.1h-2.3c-3.8,0-6.9-3.1-6.9-6.9c0-3.8,3.1-6.9,6.9-6.9h2.3
					c3.8,0,6.9,3.1,6.9,6.9c0,1.3-1.1,2.4-2.4,2.4c-1.3,0-2.4-1.1-2.4-2.4c0-1.1-0.9-2.1-2.1-2.1h-2.3c-1.1,0-2.1,0.9-2.1,2.1
					c0,1.1,0.9,2.1,2.1,2.1h2.3c3.8,0,6.9,3.1,6.9,6.9v0.2C78.1,55.4,75,58.5,71.2,58.5z"/>
			</g>
		</g>
		<g>
			<g>
				<path d="M70.6,40.4c-1.3,0-2.4-1.1-2.4-2.4v-3.4c0-1.3,1.1-2.4,2.4-2.4c1.3,0,2.4,1.1,2.4,2.4V38C73,39.3,71.9,40.4,70.6,40.4z"
					/>
			</g>
		</g>
		<g>
			<g>
				<path d="M70.6,62c-1.3,0-2.4-1.1-2.4-2.4v-3.4c0-1.3,1.1-2.4,2.4-2.4c1.3,0,2.4,1.1,2.4,2.4v3.4C73,60.9,71.9,62,70.6,62z"/>
			</g>
		</g>
	</g>
	<g>
		<g>
			<g>
				<path d="M93.7,104.6H68c-1.3,0-2.4-1.1-2.4-2.4c0-1.3,1.1-2.4,2.4-2.4h23.2v-0.7c0-2.9-2.3-5.2-5.2-5.2H50.2l-15.1,5.2
					c-0.3,0.1-0.5,0.1-0.8,0.1H19.9c-1.3,0-2.4-1.1-2.4-2.4c0-1.3,1.1-2.4,2.4-2.4h14L49,89.2c0.3-0.1,0.5-0.1,0.8-0.1h36.3
					c5.5,0,10.1,4.5,10.1,10.1v3.1C96.1,103.5,95,104.6,93.7,104.6z"/>
			</g>
		</g>
		<g>
			<g>
				<path d="M69.6,125.4c-1.5,0-3-0.1-4.4-0.4l-32.6-5.2H19.9c-1.3,0-2.4-1.1-2.4-2.4c0-1.3,1.1-2.4,2.4-2.4h12.8c0.1,0,0.3,0,0.4,0
					l32.8,5.3c4.9,0.8,9.7,0,14.1-2.2l12.2-6.3c1.6-0.8,3.2-1.5,4.9-2.2l25.9-9.6c-1.4-2.7-4.6-3.9-7.5-2.9l-21.1,7.4
					c-1.3,0.4-2.6-0.2-3.1-1.5c-0.4-1.3,0.2-2.6,1.5-3.1l21.1-7.4c5.3-1.9,11.2,0.6,13.6,5.7c0.5,1.1,0.6,2.5,0.1,3.6
					c-0.5,1.2-1.4,2.1-2.6,2.5l-26.2,9.7c-1.5,0.6-3,1.2-4.4,1.9l-12.2,6.3C78.3,124.4,74,125.4,69.6,125.4z"/>
			</g>
		</g>
		<g>
			<g>
				<path d="M19.9,126.4H3c-1.3,0-2.4-1.1-2.4-2.4V90.1c0-1.3,1.1-2.4,2.4-2.4h16.9c1.3,0,2.4,1.1,2.4,2.4V124
					C22.3,125.3,21.2,126.4,19.9,126.4z M5.5,121.6h12V92.5h-12V121.6z"/>
			</g>
		</g>
	</g>
	<g>
		<g>
			<path d="M108,72.4H32.2c-1.3,0-2.4-1.1-2.4-2.4c0-3.9-3.2-7.2-7.2-7.2c-1.3,0-2.4-1.1-2.4-2.4V33.7c0-1.3,1.1-2.4,2.4-2.4
				c3.9,0,7.2-3.2,7.2-7.2c0-1.3,1.1-2.4,2.4-2.4H108c1.3,0,2.4,1.1,2.4,2.4c0,3.9,3.2,7.2,7.2,7.2c1.3,0,2.4,1.1,2.4,2.4v26.8
				c0,1.3-1.1,2.4-2.4,2.4c-3.9,0-7.2,3.2-7.2,7.2C110.4,71.3,109.3,72.4,108,72.4z M34.3,67.6h71.5c1-4.7,4.7-8.4,9.3-9.3V35.9
				c-4.7-1-8.4-4.7-9.3-9.3H34.3c-1,4.7-4.7,8.4-9.3,9.3v22.4C29.7,59.2,33.4,62.9,34.3,67.6z"/>
		</g>
	</g>
</g>
</svg>
