<?xml version="1.0" encoding="utf-8"?>
<!-- Generator: Adobe Illustrator 24.0.1, SVG Export Plug-In . SVG Version: 6.00 Build 0)  -->
<svg version="1.1" id="Capa_1" xmlns="http://www.w3.org/2000/svg" xmlns:xlink="http://www.w3.org/1999/xlink" x="0px" y="0px"
	 viewBox="0 0 128 128" style="enable-background:new 0 0 128 128;" xml:space="preserve">
<g>
	<path d="M113.7,36.8c-6-9.3-14.5-16.7-24.5-21.4c-0.6-0.3-1.2-0.4-1.8-0.4c-0.8,0-3.3,0.3-3.3,4.5v7c0,3.5,2.2,5.2,2.8,5.6
		c12.8,8,20.5,21.8,20.5,36.8c0,23.9-19.5,43.4-43.4,43.4S20.6,92.8,20.6,68.9c0-15.3,7.8-29.2,21-37.1c1.8-1.1,2.7-2.9,2.7-5.4
		v-7.1c0-3.1-2-4.2-3.7-4.2c-0.7,0-1.4,0.2-2,0.5c-9.9,4.7-18.3,12.2-24.3,21.4c-6.1,9.5-9.4,20.6-9.4,31.9
		C4.9,101.5,31.4,128,64,128s59.1-26.5,59.1-59.1C123.1,57.5,119.8,46.4,113.7,36.8z"/>
	<path d="M60.1,46h8.3c2.2,0,3.9-1.8,3.9-3.9V3.9c0-2.2-1.8-3.9-3.9-3.9h-8.3c-2.2,0-3.9,1.8-3.9,3.9v38.2
		C56.1,44.3,57.9,46,60.1,46z"/>
</g>
</svg>
