<?xml version="1.0" encoding="utf-8"?>
<!-- Generator: Adobe Illustrator 24.0.1, SVG Export Plug-In . SVG Version: 6.00 Build 0)  -->
<svg version="1.1" id="Capa_1" xmlns="http://www.w3.org/2000/svg" xmlns:xlink="http://www.w3.org/1999/xlink" x="0px" y="0px"
	 viewBox="0 0 128 128" style="enable-background:new 0 0 128 128;" xml:space="preserve">
<g>
	<path d="M74,38c-1.4,0-2.5,1.1-2.5,2.5c0,1.4,1.1,2.5,2.5,2.5c1.4,0,2.5-1.1,2.5-2.5C76.5,39.1,75.4,38,74,38z"/>
	<path d="M58.8,86.8c1-1,1-2.6,0-3.5c-1-1-2.6-1-3.5,0c-1,1-1,2.6,0,3.5C56.3,87.8,57.9,87.8,58.8,86.8z"/>
	<path d="M28.8,127.3c1,1,2.5,1,3.5,0l12.1-11.9c2.1-2.1,2.7-5.1,1.8-7.8l2.6-2.5c1.4-1.4,3.3-2.1,5.2-2.1h33.2
		c5.9,0,11.5-2.3,15.7-6.4c0.2-0.2-1.3,1.6,22.7-27.1c3.6-4.2,3-10.5-1.2-14.1c-4.2-3.5-10.5-3-14,1.1L95.7,71.7
		C93.8,69.4,91,68,87.9,68H60c-4-1.7-8.2-2.5-12.5-2.5c-12,0-22.5,5.6-28.2,16c-2.4-0.5-4.9,0.3-6.7,2.1L0.7,95.5c-1,1-1,2.5,0,3.5
		L28.8,127.3z M47.5,70.5c3.8,0,7.5,0.8,11,2.3c0.3,0.1,0.7,0.2,1,0.2h28.4c2.7,0,5,2.2,5,5c0,2.8-2.2,5-5,5H67.5
		c-1.4,0-2.5,1.1-2.5,2.5c0,1.4,1.1,2.5,2.5,2.5h20.4c5.5,0,10-4.5,10-10c0-0.4,0-0.9-0.1-1.3c14.3-14.7,16.3-16.7,16.4-16.8
		c1.8-2.1,4.9-2.4,7-0.6c2.1,1.8,2.4,4.9,0.6,7.1L99.4,93.1c-3.3,3.1-7.6,4.9-12.1,4.9H54c-3.3,0-6.3,1.2-8.7,3.5l-2.1,2L23.7,83.9
		C28.2,75.4,36.8,70.5,47.5,70.5z M16.2,87.1c0.8-0.8,2.1-1,3.1-0.4c0.4,0.2,21.8,21.7,21.9,21.8c0.7,1,0.6,2.4-0.2,3.2L30.6,122
		L6,97.2L16.2,87.1z"/>
	<path d="M39,53h60c4.1,0,7.5-3.4,7.5-7.5c0-6.3,0-33.5,0-38c0-4.1-3.4-7.5-7.5-7.5H39c-4.1,0-7.5,3.4-7.5,7.5v38
		C31.5,49.6,34.9,53,39,53z M101.5,20h-65v-5h65V20z M99,48H39c-1.4,0-2.5-1.1-2.5-2.5V25h65v20.5C101.5,46.9,100.4,48,99,48z M39,5
		h60c1.4,0,2.5,1.1,2.5,2.5V10h-65V7.5C36.5,6.1,37.6,5,39,5z"/>
	<path d="M94,38H84c-1.4,0-2.5,1.1-2.5,2.5c0,1.4,1.1,2.5,2.5,2.5h10c1.4,0,2.5-1.1,2.5-2.5C96.5,39.1,95.4,38,94,38z"/>
</g>
</svg>
