<?xml version="1.0" encoding="utf-8"?>
<!-- Generator: Adobe Illustrator 24.0.1, SVG Export Plug-In . SVG Version: 6.00 Build 0)  -->
<svg version="1.1" id="Capa_1" xmlns="http://www.w3.org/2000/svg" xmlns:xlink="http://www.w3.org/1999/xlink" x="0px" y="0px"
	 viewBox="0 0 128 128" style="enable-background:new 0 0 128 128;" xml:space="preserve">
<g>
	<g>
		<g>
			<rect x="32" y="57.6" width="12.8" height="12.8"/>
		</g>
	</g>
	<g>
		<g>
			<rect x="57.6" y="57.6" width="12.8" height="12.8"/>
		</g>
	</g>
	<g>
		<g>
			<rect x="83.2" y="57.6" width="12.8" height="12.8"/>
		</g>
	</g>
	<g>
		<g>
			<rect x="32" y="83.2" width="12.8" height="12.8"/>
		</g>
	</g>
	<g>
		<g>
			<rect x="57.6" y="83.2" width="12.8" height="12.8"/>
		</g>
	</g>
	<g>
		<g>
			<rect x="83.2" y="83.2" width="12.8" height="12.8"/>
		</g>
	</g>
	<g>
		<g>
			<path d="M121.6,12.8h-12.8V6.4c0-3.8-2.6-6.4-6.4-6.4C98.6,0,96,2.6,96,6.4v6.4H32V6.4C32,2.6,29.4,0,25.6,0s-6.4,2.6-6.4,6.4
				v6.4H6.4c-3.8,0-6.4,2.6-6.4,6.4v102.4c0,3.8,2.6,6.4,6.4,6.4h115.2c3.2,0,6.4-2.6,6.4-6.4V19.2C128,15.4,124.8,12.8,121.6,12.8z
				 M115.2,115.2H12.8V38.4h102.4L115.2,115.2L115.2,115.2z"/>
		</g>
	</g>
</g>
</svg>
