<?xml version="1.0" encoding="utf-8"?>
<!-- Generator: Adobe Illustrator 24.0.1, SVG Export Plug-In . SVG Version: 6.00 Build 0)  -->
<svg version="1.1" id="Capa_1" xmlns="http://www.w3.org/2000/svg" xmlns:xlink="http://www.w3.org/1999/xlink" x="0px" y="0px"
	 viewBox="0 0 128 128" style="enable-background:new 0 0 128 128;" xml:space="preserve">
<g>
	<g>
		<g>
			<path d="M115.9,39.1L90.6,3.8C88.9,1.4,86.2,0,83.3,0H19.5c-5,0-9,4.1-9,9V119c0,5,4.1,9,9,9h89.1c5,0,9-4.1,9-9V44.4
				C117.6,42.5,117,40.7,115.9,39.1z M82.6,10.2L82.6,10.2L103.3,39l-20.7,0L82.6,10.2z M107.4,117.8H20.6V10.2h51.8l0,33.3
				c0,0.2,0,0.4,0,0.6c0,0,0,0,0,0c0,2.8,2.3,5.1,5.1,5.1l29.9,0V117.8z"/>
		</g>
	</g>
	<g>
		<g>
			<path d="M51.4,20H35.1c-2.8,0-5.1,2.3-5.1,5.1s2.3,5.1,5.1,5.1h16.3c2.8,0,5.1-2.3,5.1-5.1S54.2,20,51.4,20z"/>
		</g>
	</g>
	<g>
		<g>
			<path d="M92.8,60.4H35.1c-2.8,0-5.1,2.3-5.1,5.1c0,2.8,2.3,5.1,5.1,5.1h57.7c2.8,0,5.1-2.3,5.1-5.1S95.6,60.4,92.8,60.4z"/>
		</g>
	</g>
	<g>
		<g>
			<path d="M92.8,77.1H35.1c-2.8,0-5.1,2.3-5.1,5.1s2.3,5.1,5.1,5.1h57.7c2.8,0,5.1-2.3,5.1-5.1C97.9,79.4,95.6,77.1,92.8,77.1z"/>
		</g>
	</g>
	<g>
		<g>
			<path d="M92.8,94.4H35.1c-2.8,0-5.1,2.3-5.1,5.1c0,2.8,2.3,5.1,5.1,5.1h57.7c2.8,0,5.1-2.3,5.1-5.1
				C97.9,96.7,95.6,94.4,92.8,94.4z"/>
		</g>
	</g>
</g>
</svg>
