<?xml version="1.0" encoding="utf-8"?>
<!-- Generator: Adobe Illustrator 24.0.1, SVG Export Plug-In . SVG Version: 6.00 Build 0)  -->
<svg version="1.1" id="Capa_1" xmlns="http://www.w3.org/2000/svg" xmlns:xlink="http://www.w3.org/1999/xlink" x="0px" y="0px"
	 viewBox="0 0 128 128" style="enable-background:new 0 0 128 128;" xml:space="preserve">
<style type="text/css">
	.st0{fill:#69949E;}
</style>
<g>
	<path class="st0" d="M126.6,104.9L72.3,13.1c-3.7-6.3-12.8-6.3-16.6,0L1.4,104.9c-3.8,6.5,0.8,14.7,8.3,14.7h108.7
		C125.8,119.6,130.5,111.4,126.6,104.9z M118.3,111.9H9.6v0c-1.6-0.1-2.5-1.5-1.6-3L62.4,17c0.8-1.3,2.4-1.3,3.3,0l54.3,91.9
		C120.8,110.4,119.9,111.9,118.3,111.9z"/>
	<g>
		<path class="st0" d="M64,83.7c-1.4,0-2.5-1.1-2.6-2.4l-2.5-31.8c-0.2-3,2.1-5.6,5.2-5.6s5.4,2.6,5.2,5.6l-2.5,31.8
			C66.5,82.7,65.4,83.7,64,83.7L64,83.7z"/>
		<circle class="st0" cx="64" cy="95.4" r="4.1"/>
	</g>
</g>
</svg>
