<?xml version="1.0" encoding="utf-8"?>
<!-- Generator: Adobe Illustrator 24.0.1, SVG Export Plug-In . SVG Version: 6.00 Build 0)  -->
<svg version="1.1" id="Capa_1" xmlns="http://www.w3.org/2000/svg" xmlns:xlink="http://www.w3.org/1999/xlink" x="0px" y="0px"
	 viewBox="0 0 128 128" style="enable-background:new 0 0 128 128;" xml:space="preserve">
<style type="text/css">
	.st0{fill:#41434C;}
	.st1{fill:url(#SVGID_1_);}
	.st2{fill:#00CEFE;}
	.st3{fill:#FFFFFF;}
</style>
<g>
	<path class="st0" d="M1.4,104.9l54.3-91.9c3.7-6.3,12.8-6.3,16.6,0l54.3,91.9c3.8,6.5-0.8,14.7-8.3,14.7H9.7
		C2.2,119.6-2.5,111.4,1.4,104.9L1.4,104.9z"/>
	<linearGradient id="SVGID_1_" gradientUnits="userSpaceOnUse" x1="16.6017" y1="138.6319" x2="89.6707" y2="65.563">
		<stop  offset="0" style="stop-color:#323DFF"/>
		<stop  offset="1" style="stop-color:#00CDFE"/>
	</linearGradient>
	<path class="st1" d="M9.6,111.9c-1.6-0.1-2.5-1.5-1.6-3L62.4,17c0.8-1.3,2.4-1.3,3.3,0l54.3,91.9c0.8,1.5,0,3-1.6,3L9.6,111.9
		L9.6,111.9z"/>
	<path class="st2" d="M88.7,56.1c-0.1,1.4-0.1,2.9-0.3,4.3c-2.6,26.1-19.2,42.9-30.8,51.5h60.7c1.6-0.1,2.5-1.5,1.6-3L88.7,56.1z"/>
	<g>
		<path class="st3" d="M64,83.7c-1.4,0-2.5-1.1-2.6-2.4l-2.5-31.8c-0.2-3,2.1-5.6,5.2-5.6s5.4,2.6,5.2,5.6l-2.5,31.8
			C66.5,82.7,65.4,83.7,64,83.7L64,83.7z"/>
		<circle class="st3" cx="64" cy="95.4" r="4.1"/>
	</g>
</g>
</svg>
