<?xml version="1.0" encoding="utf-8"?>
<!-- Generator: Adobe Illustrator 24.0.1, SVG Export Plug-In . SVG Version: 6.00 Build 0)  -->
<svg version="1.1" id="Capa_1" xmlns="http://www.w3.org/2000/svg" xmlns:xlink="http://www.w3.org/1999/xlink" x="0px" y="0px"
	 viewBox="0 0 128 128" style="enable-background:new 0 0 128 128;" xml:space="preserve">
<g>
	<g>
		<g>
			<path d="M64,0C45.4,0,30.2,15.1,30.2,33.8S45.4,67.5,64,67.5s33.8-15.1,33.8-33.8S82.6,0,64,0z"/>
		</g>
	</g>
	<g>
		<g>
			<path d="M106,89.5C96.8,80.2,84.5,75,71.5,75h-15c-13,0-25.3,5.2-34.5,14.5c-9.2,9.3-14.3,21.7-14.3,34.7c0,2.1,1.7,3.8,3.8,3.8
				h105c2.1,0,3.8-1.7,3.8-3.8C120.2,111.2,115.2,98.9,106,89.5z"/>
		</g>
	</g>
</g>
</svg>
