<?xml version="1.0" encoding="utf-8"?>
<!-- Generator: Adobe Illustrator 24.0.1, SVG Export Plug-In . SVG Version: 6.00 Build 0)  -->
<svg version="1.1" id="Capa_1" xmlns="http://www.w3.org/2000/svg" xmlns:xlink="http://www.w3.org/1999/xlink" x="0px" y="0px"
	 viewBox="0 0 128 128" style="enable-background:new 0 0 128 128;" xml:space="preserve">
<g>
	<g>
		<g>
			<path d="M107.8,81.1V35.3c0-1.4-1.2-2.4-2.6-2.4h-10c-1.4,0-2.7,1-2.7,2.4v41.4c-1.7,0.1-3.3,0.3-4.9,0.6V48.8
				c0-1.4-1.2-2.5-2.6-2.5h-10c-1.4,0-2.6,1-2.6,2.5v38.7c-3.1,4.3-4.7,9.5-4.7,14.9c0,14.2,11.5,25.7,25.7,25.7
				c14.2,0,25.7-11.5,25.7-25.7C118.9,93.8,114.8,85.9,107.8,81.1z M97.7,38h4.9v40.3c-1.6-0.6-3.2-1.1-4.9-1.3V38z M77.5,51.5h4.9
				v27.6c-1.7,0.8-3.4,1.8-4.9,3V51.5z M110.9,112.7c-3.7,6.2-10.4,10-17.6,10c-11.3,0-20.5-9.2-20.5-20.5c0-8.3,5-15.8,12.7-18.9
				c0.3-0.1,0.6-0.2,0.9-0.3c2.2-0.8,4.6-1.2,7-1.2c0.5,0,1.1,0,1.6,0.1h0c3.1,0.2,6.1,1.2,8.8,2.8
				C113.5,90.5,116.7,103,110.9,112.7z"/>
		</g>
	</g>
	<g>
		<g>
			<path d="M93.3,100.2c-1.8,0-3.3-1.5-3.3-3.3c0-1.8,1.4-3.3,3.2-3.3c1.8,0,3.3,1.5,3.3,3.3c0,1.4,1.2,2.6,2.6,2.6
				c1.5,0,2.6-1.1,2.6-2.6c0-3.5-2.1-6.6-5.4-7.9v-2.1c0-1.4-1.2-2.6-2.6-2.6c-1.4,0-2.6,1.2-2.6,2.6v1.9c-4.5,1.2-7.2,5.8-6.1,10.3
				c0.9,3.7,4.3,6.3,8.1,6.3c1.8,0,3.2,1.5,3.2,3.3c0,1.8-1.5,3.2-3.3,3.2s-3.2-1.5-3.2-3.3c0-1.4-1.2-2.6-2.6-2.6
				c-1.4,0-2.6,1.1-2.5,2.6v0c0,3.8,2.6,7.2,6.3,8.2v1.2c0,1.4,1.2,2.6,2.6,2.6c1.4,0,2.6-1.2,2.6-2.6v-1.4
				c4.4-1.7,6.5-6.6,4.8-10.9C99.9,102.3,96.8,100.2,93.3,100.2z"/>
		</g>
	</g>
	<g>
		<g>
			<path d="M44.3,67H34.2c-1.4,0-2.6,1.2-2.6,2.6v40.7c0,1.4,1.2,2.6,2.6,2.6h10.1c1.4,0,2.6-1.2,2.6-2.6V69.6
				C46.9,68.2,45.7,67,44.3,67z M41.7,108h-4.9V72.2h4.9V108z"/>
		</g>
	</g>
	<g>
		<g>
			<path d="M64.8,61.1H54.7c-1.4,0-2.6,1.2-2.6,2.6v46.9c0,1.4,1.2,2.6,2.6,2.6h10.1c1.4,0,2.6-1.2,2.6-2.6V63.7
				C67.4,62.3,66.2,61.1,64.8,61.1z M62.2,108h-4.9V66.3h4.9V108z"/>
		</g>
	</g>
	<g>
		<g>
			<path d="M23.9,89.3H13.8c-1.4,0-2.6,1.2-2.6,2.6v18.4c0,1.4,1.2,2.6,2.6,2.6h10.1c1.4,0,2.6-1.2,2.6-2.6V91.9
				C26.5,90.5,25.3,89.3,23.9,89.3z M21.3,108h-4.9V94.5h4.9V108z"/>
		</g>
	</g>
	<g>
		<g>
			<path d="M107.4,0L89.7,0c-1.4,0-2.6,1.1-2.6,2.6s1.1,2.6,2.6,2.6c0,0,0,0,0.1,0l11.5,0L73,33.2l-9.8-9.7
				c-0.5-0.5-1.2-0.7-1.8-0.7c-0.7,0-1.3,0.2-1.8,0.7L9.8,73.2c-1,1-1,2.6,0,3.6c0.5,0.5,1.1,0.8,1.8,0.8c0.7,0,1.3-0.3,1.8-0.8
				l47.9-47.9l9.8,9.9c0.5,0.5,1.1,0.8,1.8,0.8c0.7,0,1.3-0.3,1.8-0.8l29.9-29.9l0,11.5c0,1.5,1.1,2.6,2.6,2.7
				c1.5,0,2.6-1.2,2.6-2.7l0-17.8C110,1.2,108.8,0,107.4,0z"/>
		</g>
	</g>
</g>
</svg>
