<?xml version="1.0" encoding="utf-8"?>
<!-- Generator: Adobe Illustrator 24.0.1, SVG Export Plug-In . SVG Version: 6.00 Build 0)  -->
<svg version="1.1" id="Capa_1" xmlns="http://www.w3.org/2000/svg" xmlns:xlink="http://www.w3.org/1999/xlink" x="0px" y="0px"
	 viewBox="0 0 128 128" style="enable-background:new 0 0 128 128;" xml:space="preserve">
<g>
	<g>
		<g>
			<path d="M109.5,68.3h-9.9c1,2.8,1.6,5.7,1.6,8.9v37.4c0,1.3-0.2,2.5-0.6,3.7h16.4c6.1,0,11.1-5,11.1-11.1V86.8
				C128,76.6,119.7,68.3,109.5,68.3z"/>
		</g>
	</g>
	<g>
		<g>
			<path d="M26.8,77.2c0-3.1,0.6-6.1,1.6-8.9h-9.9C8.3,68.3,0,76.6,0,86.8v20.4c0,6.1,5,11.1,11.1,11.1h16.4
				c-0.4-1.2-0.6-2.4-0.6-3.7V77.2z"/>
		</g>
	</g>
	<g>
		<g>
			<path d="M75.3,58.7H52.7c-10.2,0-18.5,8.3-18.5,18.5v37.4c0,2,1.7,3.7,3.7,3.7h52.2c2,0,3.7-1.7,3.7-3.7V77.2
				C93.8,67,85.5,58.7,75.3,58.7z"/>
		</g>
	</g>
	<g>
		<g>
			<path d="M64,9.7c-12.3,0-22.2,10-22.2,22.2c0,8.3,4.6,15.6,11.4,19.4c3.2,1.8,6.9,2.8,10.9,2.8c3.9,0,7.6-1,10.9-2.8
				c6.8-3.8,11.4-11.1,11.4-19.4C86.2,19.7,76.3,9.7,64,9.7z"/>
		</g>
	</g>
	<g>
		<g>
			<path d="M25,30.4c-9.2,0-16.6,7.5-16.6,16.6S15.8,63.7,25,63.7c2.3,0,4.5-0.5,6.5-1.3c3.5-1.5,6.3-4.1,8.1-7.5c1.2-2.3,2-5,2-7.8
				C41.6,37.9,34.1,30.4,25,30.4z"/>
		</g>
	</g>
	<g>
		<g>
			<path d="M103,30.4c-9.2,0-16.6,7.5-16.6,16.6c0,2.8,0.7,5.5,2,7.8c1.8,3.3,4.6,6,8.1,7.5c2,0.9,4.2,1.3,6.5,1.3
				c9.2,0,16.6-7.5,16.6-16.6S112.2,30.4,103,30.4z"/>
		</g>
	</g>
</g>
</svg>
