<?xml version="1.0" encoding="utf-8"?>
<!-- Generator: Adobe Illustrator 24.0.1, SVG Export Plug-In . SVG Version: 6.00 Build 0)  -->
<svg version="1.1" id="Capa_1" xmlns="http://www.w3.org/2000/svg" xmlns:xlink="http://www.w3.org/1999/xlink" x="0px" y="0px"
	 viewBox="0 0 128 128" style="enable-background:new 0 0 128 128;" xml:space="preserve">
<style type="text/css">
	.st0{fill-rule:evenodd;clip-rule:evenodd;}
</style>
<g id="WA_Logo">
	<g>
		<path class="st0" d="M109.1,18.6C97.2,6.6,81.2,0,64.3,0C29.3,0,0.9,28.5,0.8,63.4c0,11.2,2.9,22.1,8.5,31.7l-9,32.9l33.6-8.8
			c9.3,5.1,19.7,7.7,30.3,7.7h0c0,0,0,0,0,0c35,0,63.4-28.5,63.4-63.4C127.7,46.5,121.1,30.6,109.1,18.6z M64.3,116.2L64.3,116.2
			c-9.5,0-18.8-2.5-26.9-7.3l-1.9-1.1l-20,5.2l5.3-19.5l-1.3-2c-5.3-8.4-8.1-18.1-8.1-28.1c0-29.1,23.7-52.7,52.7-52.7
			c14.1,0,27.3,5.5,37.3,15.5c10,10,15.4,23.2,15.4,37.3C117,92.5,93.3,116.2,64.3,116.2z M93.2,76.7c-1.6-0.8-9.4-4.6-10.8-5.2
			c-1.5-0.5-2.5-0.8-3.6,0.8c-1.1,1.6-4.1,5.2-5,6.2c-0.9,1.1-1.8,1.2-3.4,0.4c-1.6-0.8-6.7-2.5-12.7-7.9c-4.7-4.2-7.9-9.4-8.8-11
			c-0.9-1.6-0.1-2.4,0.7-3.2c0.7-0.7,1.6-1.9,2.4-2.8c0.8-0.9,1.1-1.6,1.6-2.6c0.5-1.1,0.3-2-0.1-2.8c-0.4-0.8-3.6-8.6-4.9-11.8
			c-1.3-3.1-2.6-2.7-3.6-2.7c-0.9,0-2-0.1-3-0.1s-2.8,0.4-4.2,2c-1.5,1.6-5.5,5.4-5.5,13.2c0,7.8,5.7,15.3,6.5,16.4
			c0.8,1.1,11.2,17.1,27.1,23.9c3.8,1.6,6.7,2.6,9,3.3c3.8,1.2,7.3,1,10,0.6c3-0.5,9.4-3.8,10.7-7.5c1.3-3.7,1.3-6.9,0.9-7.5
			C95.8,77.9,94.8,77.5,93.2,76.7z"/>
	</g>
</g>
</svg>
