<?xml version="1.0" encoding="utf-8"?>
<!-- Generator: Adobe Illustrator 24.0.1, SVG Export Plug-In . SVG Version: 6.00 Build 0)  -->
<svg version="1.1" id="Capa_1" xmlns="http://www.w3.org/2000/svg" xmlns:xlink="http://www.w3.org/1999/xlink" x="0px" y="0px"
	 viewBox="0 0 128 128" style="enable-background:new 0 0 128 128;" xml:space="preserve">
<g>
	<g>
		<g>
			<circle cx="69.5" cy="86.5" r="5"/>
			<path d="M86.2,118H24c-5.5,0-10-4.5-10-10V67c0-5.5,4.5-10,10-10h72c1.1,0,2,0.1,2.8,0.3c2.7,0.8,5.4-0.8,6.2-3.4
				c0.8-2.7-0.8-5.4-3.4-6.2C99.9,47.2,98.1,47,96,47h-6V29.4C90,13.2,76.5,0,60,0S30,13.2,30,29.4V47h-6C13,47,4,56,4,67v41
				c0,11,9,20,20,20h62.3c2.8,0,5-2.2,5-5S89,118,86.2,118z M40,29.4c0-10.7,9-19.4,20-19.4s20,8.7,20,19.4V47H40V29.4z"/>
			<circle cx="50.7" cy="86.5" r="5"/>
			<path d="M124,82.8c-0.1-9.7-8-17.6-17.8-17.6c-9.8,0-17.8,8-17.8,17.8c0,2.8,2.2,5,5,5s5-2.2,5-5c0-4.3,3.5-7.8,7.8-7.8
				s7.8,3.5,7.8,7.8c0,0,0,0.1,0,0.1c-0.1,3.1-1.9,5.8-4.7,7c-4.9,2.1-8,6.9-8,12.3v4.3c0,2.8,2.2,5,5,5s5-2.2,5-5v-4.3
				c0-1.4,0.8-2.6,2-3.1c6.6-2.8,10.8-9.2,10.8-16.3C124,82.9,124,82.9,124,82.8z"/>
			<path d="M106.2,118c2.8,0,5,2.2,5,5s-2.2,5-5,5s-5-2.2-5-5S103.5,118,106.2,118z"/>
			<circle cx="32" cy="86.5" r="5"/>
		</g>
	</g>
</g>
</svg>
