<?xml version="1.0" encoding="utf-8"?>
<!-- Generator: Adobe Illustrator 24.0.1, SVG Export Plug-In . SVG Version: 6.00 Build 0)  -->
<svg version="1.1" id="Capa_1" xmlns="http://www.w3.org/2000/svg" xmlns:xlink="http://www.w3.org/1999/xlink" x="0px" y="0px"
	 viewBox="0 0 128 128" style="enable-background:new 0 0 128 128;" xml:space="preserve">
<g>
	<path d="M37.3,42.7c0,5.9-4.8,10.7-10.7,10.7c-5.9,0-10.7-4.8-10.7-10.7C16,36.8,20.8,32,26.7,32C32.6,32,37.3,36.8,37.3,42.7z"/>
	<path d="M112,16H16C7.2,16,0,23.2,0,32v64c0,0.3,0.1,0.6,0.1,0.9c-0.1,0.6,0,1.3,0.2,1.9C1.6,106.3,8.1,112,16,112h96
		c8.8,0,16-7.2,16-16V32C128,23.2,120.8,16,112,16z M16,26.7h96c2.9,0,5.3,2.4,5.3,5.3v42.3L89.3,46.3c-3.6-3.6-9.6-3.6-13.2,0
		L50.7,71.7L43.9,65c-3.6-3.6-9.6-3.6-13.2,0L10.7,85V32C10.7,29.1,13.1,26.7,16,26.7z"/>
</g>
</svg>
