<?xml version="1.0" encoding="utf-8"?>
<!-- Generator: Adobe Illustrator 24.0.1, SVG Export Plug-In . SVG Version: 6.00 Build 0)  -->
<svg version="1.1" id="Capa_1" xmlns="http://www.w3.org/2000/svg" xmlns:xlink="http://www.w3.org/1999/xlink" x="0px" y="0px"
	 viewBox="0 0 128 128" style="enable-background:new 0 0 128 128;" xml:space="preserve">
<g>
	<g id="Layer_1_114_">
		<g>
			<path d="M20.1,52.4H5.8C2.6,52.4,0,55,0,58.2v64c0,3.2,2.6,5.8,5.8,5.8h14.3c3.2,0,5.8-2.6,5.8-5.8v-64
				C25.9,55,23.3,52.4,20.1,52.4z"/>
			<path d="M54.1,69.8H39.9c-3.2,0-5.8,2.6-5.8,5.8v46.5c0,3.2,2.6,5.8,5.8,5.8h14.3c3.2,0,5.8-2.6,5.8-5.8V75.6
				C59.9,72.4,57.3,69.8,54.1,69.8z"/>
			<path d="M88.1,69.8H73.9c-3.2,0-5.8,2.6-5.8,5.8v46.5c0,3.2,2.6,5.8,5.8,5.8h14.3c3.2,0,5.8-2.6,5.8-5.8V75.6
				C94,72.4,91.4,69.8,88.1,69.8z"/>
			<path d="M122.2,52.4h-14.3c-3.2,0-5.8,2.6-5.8,5.8v64c0,3.2,2.6,5.8,5.8,5.8h14.3c3.2,0,5.8-2.6,5.8-5.8v-64
				C128,55,125.4,52.4,122.2,52.4z"/>
			<path d="M65.7,35.1v10.5c3.2-0.2,6.5-1.7,6.5-5.2C72.2,36.7,68.5,35.7,65.7,35.1z"/>
			<path d="M56.6,22.5c0,2.6,2,4.2,5.9,5V18C58.9,18.1,56.6,20.2,56.6,22.5z"/>
			<path d="M64,0C46.4,0,32,14.4,32,32c0,17.6,14.4,32,32,32s32-14.4,32-32C96,14.4,81.6,0,64,0z M65.7,50.9v3.3
				c0,0.9-0.7,1.8-1.6,1.8c-0.9,0-1.6-0.9-1.6-1.8v-3.3c-8.9-0.2-13.4-5.6-13.4-9.7c0-2.1,1.3-3.3,3.3-3.3c5.9,0,1.3,7.3,10.1,7.7
				V34.5c-7.8-1.4-12.6-4.9-12.6-10.7c0-7.2,6-10.9,12.6-11.1V9.8c0-0.9,0.7-1.8,1.6-1.8c0.9,0,1.6,0.9,1.6,1.8v2.8
				c4.1,0.1,12.6,2.7,12.6,7.9c0,2.1-1.5,3.3-3.3,3.3c-3.4,0-3.4-5.7-9.2-5.8v10.1c7,1.5,13.2,3.5,13.2,11.7
				C78.9,46.8,73.6,50.4,65.7,50.9z"/>
		</g>
	</g>
</g>
</svg>
