<?xml version="1.0" encoding="utf-8"?>
<!-- Generator: Adobe Illustrator 24.0.1, SVG Export Plug-In . SVG Version: 6.00 Build 0)  -->
<svg version="1.1" id="Capa_1" xmlns="http://www.w3.org/2000/svg" xmlns:xlink="http://www.w3.org/1999/xlink" x="0px" y="0px"
	 viewBox="0 0 128 128" style="enable-background:new 0 0 128 128;" xml:space="preserve">
<g>
	<g>
		<g>
			<path d="M126,98.8L77,14.1c-2.7-4.7-7.6-7.5-13-7.5c-5.4,0-10.3,2.8-13,7.5L2,98.8c-2.7,4.7-2.7,10.3,0,15.1
				c2.7,4.7,7.6,7.5,13,7.5h97.8c5.4,0,10.3-2.8,13-7.5C128.7,109.2,128.7,103.6,126,98.8z M119.5,110.1c-1.4,2.4-3.8,3.8-6.5,3.8
				H15.1c-2.7,0-5.2-1.4-6.5-3.8c-1.4-2.4-1.4-5.2,0-7.6l48.9-84.7c1.4-2.4,3.8-3.8,6.5-3.8c2.7,0,5.2,1.4,6.5,3.8l48.9,84.7
				C120.8,105,120.8,107.8,119.5,110.1z"/>
		</g>
	</g>
	<g>
		<g>
			<rect x="60.3" y="44" width="7.5" height="37.5"/>
		</g>
	</g>
	<g>
		<g>
			<path d="M64,89c-2.8,0-5,2.2-5,5s2.2,5,5,5c2.8,0,5-2.2,5-5S66.8,89,64,89z"/>
		</g>
	</g>
</g>
</svg>
