<?xml version="1.0" encoding="utf-8"?>
<!-- Generator: Adobe Illustrator 24.0.1, SVG Export Plug-In . SVG Version: 6.00 Build 0)  -->
<svg version="1.1" id="Capa_1" xmlns="http://www.w3.org/2000/svg" xmlns:xlink="http://www.w3.org/1999/xlink" x="0px" y="0px"
	 viewBox="0 0 128 128" style="enable-background:new 0 0 128 128;" xml:space="preserve">
<g>
	<g>
		<g>
			<path d="M111.2,49.2H78.8c-3.5,0-6.4-2.9-6.4-6.4V39V6.4C72.4,2.9,69.5,0,66,0H19.5c-5,0-9,4.1-9,9V119c0,5,4.1,9,9,9h89
				c5,0,9-4.1,9-9V55.6C117.6,52.1,114.7,49.2,111.2,49.2z M35.1,20h16.1c2.8,0,5.1,2.1,5.2,4.9c0.1,2.9-2.2,5.3-5.1,5.3H35.2
				c-2.8,0-5.1-2.1-5.2-4.9C29.8,22.4,32.2,20,35.1,20z M92.8,104.6H35.2c-2.8,0-5.1-2.1-5.2-4.9c-0.1-2.9,2.2-5.3,5.1-5.3h57.6
				c2.8,0,5.1,2.1,5.2,4.9C98,102.2,95.7,104.6,92.8,104.6z M92.8,87.3H35.2c-2.8,0-5.1-2.1-5.2-4.9c-0.1-2.9,2.2-5.3,5.1-5.3h57.6
				c2.8,0,5.1,2.1,5.2,4.9C98,84.9,95.7,87.3,92.8,87.3z M92.8,70.6H35.2c-2.8,0-5.1-2.1-5.2-4.9c-0.1-2.9,2.2-5.3,5.1-5.3h57.6
				c2.8,0,5.1,2.1,5.2,4.9C98,68.2,95.7,70.6,92.8,70.6z"/>
		</g>
	</g>
	<g>
		<g>
			<path d="M113.8,36.2L90.6,3.8C88.9,1.4,86.2,0,83.3,0c-0.4,0-0.7,0.3-0.7,0.7v35.1c0,1.8,1.5,3.3,3.3,3.3h26.4
				C113.8,39,114.6,37.4,113.8,36.2z"/>
		</g>
	</g>
</g>
</svg>
