<?xml version="1.0" encoding="utf-8"?>
<!-- Generator: Adobe Illustrator 24.0.1, SVG Export Plug-In . SVG Version: 6.00 Build 0)  -->
<svg version="1.1" id="Capa_1" xmlns="http://www.w3.org/2000/svg" xmlns:xlink="http://www.w3.org/1999/xlink" x="0px" y="0px"
	 viewBox="0 0 128 128" style="enable-background:new 0 0 128 128;" xml:space="preserve">
<path d="M109.7,71.1c0.4-2.3,0.5-4.7,0.5-7.1c0-2.4-0.2-4.7-0.5-7.1l11.8-9.2c2.8-2.2,3.5-6.1,1.8-9.2l-7.6-13.1
	c-1.8-3.1-5.6-4.4-8.8-3L93,28c-3.8-3-7.9-5.4-12.2-7.1L78.6,6.1c-0.5-3.5-3.5-6.1-7-6.1H56.4c-3.5,0-6.5,2.6-7,6.1l-2.1,14.8
	c-4.4,1.7-8.5,4.1-12.2,7.1l-13.9-5.6c-3.3-1.3-7,0-8.8,3L4.8,38.6c-1.8,3.1-1,7,1.8,9.2l11.7,9.2c-0.4,2.3-0.5,4.7-0.5,7.1
	c0,2.4,0.2,4.7,0.5,7.1L6.6,80.3c-2.8,2.2-3.5,6.1-1.8,9.2l7.6,13.1c1.8,3,5.6,4.4,8.8,3L35,100c3.8,3,7.9,5.4,12.2,7.1l2.1,14.8
	c0.5,3.5,3.5,6.1,7,6.1h15.2c3.5,0,6.5-2.6,7-6.1l2.1-14.8c4.4-1.7,8.5-4.1,12.2-7.1l13.9,5.6c3.3,1.3,7.1,0,8.8-3l7.6-13.1
	c1.8-3.1,1-7-1.8-9.2L109.7,71.1z M64,88.9c-13.7,0-24.9-11.2-24.9-24.9S50.3,39.1,64,39.1c13.7,0,24.9,11.2,24.9,24.9
	S77.7,88.9,64,88.9z"/>
</svg>
