<?xml version="1.0" encoding="utf-8"?>
<!-- Generator: Adobe Illustrator 24.0.1, SVG Export Plug-In . SVG Version: 6.00 Build 0)  -->
<svg version="1.1" id="Capa_1" xmlns="http://www.w3.org/2000/svg" xmlns:xlink="http://www.w3.org/1999/xlink" x="0px" y="0px"
	 viewBox="0 0 128 128" style="enable-background:new 0 0 128 128;" xml:space="preserve">
<style type="text/css">
	.st0{fill-rule:evenodd;clip-rule:evenodd;fill:#EEF4FF;}
	.st1{fill-rule:evenodd;clip-rule:evenodd;fill:#CACFE6;}
	.st2{fill-rule:evenodd;clip-rule:evenodd;fill:#F3EFF0;}
	.st3{fill-rule:evenodd;clip-rule:evenodd;fill:url(#SVGID_1_);}
	.st4{fill:#41434C;}
	.st5{fill:#EEF4FF;}
</style>
<g>
	<g>
		<path class="st0" d="M92.1,17.8V3.3H31.7C30.2,3.3,29,4.5,29,6v9.7v94c0,1.5,1.2,2.7,2.7,2.7H99h9.7c1.5,0,2.7-1.2,2.7-2.7V20.5
			H94.9C93.4,20.5,92.1,19.3,92.1,17.8L92.1,17.8z M50.4,41.3c0-11,8.9-19.8,19.8-19.8c11,0,19.8,8.9,19.8,19.8s-8.9,19.8-19.8,19.8
			C59.2,61.2,50.4,52.3,50.4,41.3L50.4,41.3z"/>
	</g>
	<g>
		<path class="st1" d="M29,109.6v-94h-9.7c-1.5,0-2.7,1.2-2.7,2.7V122c0,1.5,1.2,2.7,2.7,2.7h0h77h0c1.5,0,2.7-1.2,2.7-2.7v-9.7
			H31.7C30.2,112.3,29,111.1,29,109.6L29,109.6z"/>
	</g>
	<g>
		<path class="st2" d="M111.4,20.5L92.1,3.3v14.6c0,1.5,1.2,2.7,2.7,2.7H111.4z"/>
	</g>
	<g>
		<linearGradient id="SVGID_1_" gradientUnits="userSpaceOnUse" x1="58.5952" y1="52.9146" x2="75.132" y2="36.3778">
			<stop  offset="0" style="stop-color:#323DFF"/>
			<stop  offset="1" style="stop-color:#00CDFE"/>
		</linearGradient>
		<path class="st3" d="M70.2,61.2c11,0,19.8-8.9,19.8-19.8s-8.9-19.8-19.8-19.8c-11,0-19.8,8.9-19.8,19.8S59.2,61.2,70.2,61.2z"/>
	</g>
	<path class="st4" d="M113.6,18.1L94.3,0.8C93.7,0.3,92.9,0,92.1,0H31.7c-3.3,0-6,2.7-6,6v6.4h-6.4c-3.3,0-6,2.7-6,6V122
		c0,3.3,2.7,6,6,6h77c3.3,0,6-2.7,6-6v-6.4h6.4c3.3,0,6-2.7,6-6V20.5C114.7,19.6,114.3,18.7,113.6,18.1z M72.2,112.3
		c0,1.8,1.5,3.3,3.3,3.3h20.3v5.9H19.9V18.9h5.9v90.7c0,3.3,2.7,6,6,6h21.6c1.8,0,3.3-1.5,3.3-3.3c0-1.8-1.5-3.3-3.3-3.3H32.2V6.5
		h56.6v11.3c0,3.3,2.7,6,6,6h13.3v85.3H75.5C73.7,109.1,72.2,110.5,72.2,112.3z M95.4,17.3v-6.7l7.5,6.7H95.4z"/>
	<path class="st5" d="M70.2,53.1c1.4,0,2.5-1.1,2.5-2.5v-9.3c0-1.4-1.1-2.5-2.5-2.5s-2.5,1.1-2.5,2.5v9.3
		C67.7,52,68.8,53.1,70.2,53.1z"/>
	<path class="st5" d="M70.2,34.5c1.4,0,2.5-1.1,2.5-2.5v0c0-1.4-1.1-2.5-2.5-2.5s-2.5,1.1-2.5,2.5C67.7,33.4,68.8,34.5,70.2,34.5z"
		/>
	<g>
		<path class="st4" d="M70.2,64.4c12.7,0,23.1-10.4,23.1-23.1c0-12.7-10.4-23.1-23.1-23.1c-12.7,0-23.1,10.4-23.1,23.1
			C47.1,54.1,57.5,64.4,70.2,64.4z M53.6,41.3c0-9.1,7.4-16.6,16.6-16.6c9.1,0,16.6,7.4,16.6,16.6c0,9.1-7.4,16.6-16.6,16.6
			C61,57.9,53.6,50.5,53.6,41.3z"/>
		<path class="st4" d="M41.5,76.1h8.1c1.8,0,3.3-1.5,3.3-3.3c0-1.8-1.5-3.3-3.3-3.3h-8.1c-1.8,0-3.3,1.5-3.3,3.3
			C38.3,74.6,39.7,76.1,41.5,76.1z"/>
		<path class="st4" d="M59.7,72.8c0,1.8,1.5,3.3,3.3,3.3h35.9c1.8,0,3.3-1.5,3.3-3.3c0-1.8-1.5-3.3-3.3-3.3H63
			C61.2,69.6,59.7,71,59.7,72.8z"/>
		<path class="st4" d="M41.5,86.7h35.9c1.8,0,3.3-1.5,3.3-3.3c0-1.8-1.5-3.3-3.3-3.3H41.5c-1.8,0-3.3,1.5-3.3,3.3
			C38.3,85.3,39.7,86.7,41.5,86.7z"/>
		<path class="st4" d="M98.8,80.2h-8.1c-1.8,0-3.3,1.5-3.3,3.3c0,1.8,1.5,3.3,3.3,3.3h8.1c1.8,0,3.3-1.5,3.3-3.3
			C102.1,81.7,100.6,80.2,98.8,80.2z"/>
		<path class="st4" d="M49.6,90.9h-8.1c-1.8,0-3.3,1.5-3.3,3.3c0,1.8,1.5,3.3,3.3,3.3h8.1c1.8,0,3.3-1.5,3.3-3.3
			C52.9,92.3,51.4,90.9,49.6,90.9z"/>
		<path class="st4" d="M98.8,90.9H63c-1.8,0-3.3,1.5-3.3,3.3c0,1.8,1.5,3.3,3.3,3.3h35.9c1.8,0,3.3-1.5,3.3-3.3
			C102.1,92.3,100.6,90.9,98.8,90.9z"/>
	</g>
	<g>
		<path class="st4" d="M64.4,109.9c-1.4,0-2.5,1.1-2.5,2.5s1.1,2.5,2.5,2.5h0c1.4,0,2.5-1.1,2.5-2.5S65.8,109.9,64.4,109.9z"/>
		<path class="st4" d="M64.4,115.6c-1.8,0-3.3-1.5-3.3-3.3c0-1.8,1.5-3.3,3.3-3.3c1.8,0,3.3,1.5,3.3,3.3
			C67.7,114.1,66.2,115.6,64.4,115.6z M64.4,110.7c-0.9,0-1.7,0.8-1.7,1.7s0.8,1.7,1.7,1.7c0.9,0,1.7-0.8,1.7-1.7
			S65.4,110.7,64.4,110.7z"/>
	</g>
</g>
</svg>
