<?xml version="1.0" encoding="utf-8"?>
<!-- Generator: Adobe Illustrator 24.0.1, SVG Export Plug-In . SVG Version: 6.00 Build 0)  -->
<svg version="1.1" id="Capa_1" xmlns="http://www.w3.org/2000/svg" xmlns:xlink="http://www.w3.org/1999/xlink" x="0px" y="0px"
	 viewBox="0 0 128 128" style="enable-background:new 0 0 128 128;" xml:space="preserve">
<g>
	<path d="M10.7,104V13.3H0v96c0,2.9,2.4,5.3,5.3,5.3H128V104H10.7z"/>
	<path d="M48,61.3c0-2.9-2.4-5.3-5.3-5.3h-16c-2.9,0-5.3,2.4-5.3,5.3v37.3H48V61.3z"/>
	<path d="M85.3,40c0-2.9-2.4-5.3-5.3-5.3H64c-2.9,0-5.3,2.4-5.3,5.3v58.7h26.7V40z"/>
	<path d="M122.7,18.7c0-2.9-2.4-5.3-5.3-5.3h-16c-2.9,0-5.3,2.4-5.3,5.3v80h26.7V18.7z"/>
</g>
</svg>
