<?xml version="1.0" encoding="utf-8"?>
<!-- Generator: Adobe Illustrator 24.0.1, SVG Export Plug-In . SVG Version: 6.00 Build 0)  -->
<svg version="1.1" id="Capa_1" xmlns="http://www.w3.org/2000/svg" xmlns:xlink="http://www.w3.org/1999/xlink" x="0px" y="0px"
	 viewBox="0 0 128 128" style="enable-background:new 0 0 128 128;" xml:space="preserve">
<g>
	<path d="M103.4,52.2C99,30.5,78,16.4,56.3,20.7C40.4,23.9,28,36.3,24.8,52.2C9.4,53.9-1.6,67.8,0.2,83.2
		c1.6,14.2,13.6,24.8,27.9,24.8h20c2.2,0,4-1.8,4-4s-1.8-4-4-4h-20C17,100,8.1,90.9,8.1,79.9c0.1-11.1,9.1-20,20.1-19.9
		c2,0,3.8-1.5,4-3.6c2-17.6,17.9-30.2,35.5-28.1C82.6,30,94.2,41.6,95.9,56.4c0.3,2.1,2.1,3.6,4.2,3.6c11.1,0,20,9,20,20
		c0,11.1-9,20-20,20h-20c-2.2,0-4,1.8-4,4s1.8,4,4,4h20c15.5-0.1,28-12.7,27.9-28.2C127.9,65.7,117.4,53.9,103.4,52.2z"/>
	<path d="M49.8,91.9C49.9,91.9,49.9,91.9,49.8,91.9l10.3-10.3V104c0,2.2,1.8,4,4,4h0c2.2,0,4-1.8,4-4V81.7l10.2,10.2
		c1.5,1.6,4.1,1.6,5.7,0.1c1.6-1.5,1.6-4.1,0.1-5.7c0,0-0.1-0.1-0.1-0.1l-17-17c-1.6-1.6-4.1-1.6-5.7,0c0,0,0,0,0,0l-17,17
		c-1.6,1.5-1.6,4.1-0.1,5.7C45.7,93.4,48.3,93.5,49.8,91.9z"/>
</g>
</svg>
