<?xml version="1.0" encoding="utf-8"?>
<!-- Generator: Adobe Illustrator 24.0.1, SVG Export Plug-In . SVG Version: 6.00 Build 0)  -->
<svg version="1.1" id="Capa_1" xmlns="http://www.w3.org/2000/svg" xmlns:xlink="http://www.w3.org/1999/xlink" x="0px" y="0px"
	 viewBox="0 0 128 128" style="enable-background:new 0 0 128 128;" xml:space="preserve">
<path d="M119.3,52.4H75.6V8.7c0-4.8-3.9-8.7-8.7-8.7h-5.8c-4.8,0-8.7,3.9-8.7,8.7v43.6H8.7c-4.8,0-8.7,3.9-8.7,8.7v5.8
	c0,4.8,3.9,8.7,8.7,8.7h43.6v43.6c0,4.8,3.9,8.7,8.7,8.7h5.8c4.8,0,8.7-3.9,8.7-8.7V75.6h43.6c4.8,0,8.7-3.9,8.7-8.7v-5.8
	C128,56.3,124.1,52.4,119.3,52.4z"/>
</svg>
