<?xml version="1.0" encoding="utf-8"?>
<!-- Generator: Adobe Illustrator 24.0.1, SVG Export Plug-In . SVG Version: 6.00 Build 0)  -->
<svg version="1.1" id="Capa_1" xmlns="http://www.w3.org/2000/svg" xmlns:xlink="http://www.w3.org/1999/xlink" x="0px" y="0px"
	 viewBox="0 0 128 128" style="enable-background:new 0 0 128 128;" xml:space="preserve">
<style type="text/css">
	.st0{fill:#69949E;}
</style>
<g>
	<path class="st0" d="M102.7,109.3H25.3c-2.2,0-4-1.8-4-4c0-2.2,1.8-4,4-4h77.3c2.2,0,4,1.8,4,4
		C106.7,107.5,104.9,109.3,102.7,109.3z"/>
	<path class="st0" d="M92,128H36c-8.1,0-14.7-6.6-14.7-14.7V14.7C21.3,6.6,27.9,0,36,0h56c8.1,0,14.7,6.6,14.7,14.7v98.7
		C106.7,121.4,100.1,128,92,128z M36,8c-3.7,0-6.7,3-6.7,6.7v98.7c0,3.7,3,6.7,6.7,6.7h56c3.7,0,6.7-3,6.7-6.7V14.7
		c0-3.7-3-6.7-6.7-6.7H36z"/>
	<path class="st0" d="M71.6,85.3h-26c-4.6,0-8.3-3.7-8.3-8.3V35c0-4.6,3.7-8.3,8.3-8.3h36.7c4.6,0,8.3,3.7,8.3,8.3v31.3
		c0,2.4-1,4.7-2.7,6.4l-10,10C76.3,84.4,74,85.3,71.6,85.3z M45.7,34.7L45.3,77l26.3,0.3c0.3,0,0.5-0.1,0.7-0.3l10-10
		c0.2-0.2,0.3-0.5,0.3-0.7V35L45.7,34.7z"/>
	<g>
		<path class="st0" d="M64,67.8c1.4,0,2.5-1.1,2.5-2.5v-9.3c0-1.4-1.1-2.5-2.5-2.5c-1.4,0-2.5,1.1-2.5,2.5v9.3
			C61.5,66.7,62.6,67.8,64,67.8z"/>
		<path class="st0" d="M64,49.2c1.4,0,2.5-1.1,2.5-2.5v0c0-1.4-1.1-2.5-2.5-2.5c-1.4,0-2.5,1.1-2.5,2.5S62.6,49.2,64,49.2z"/>
	</g>
</g>
</svg>
