<?xml version="1.0" encoding="utf-8"?>
<!-- Generator: Adobe Illustrator 24.0.1, SVG Export Plug-In . SVG Version: 6.00 Build 0)  -->
<svg version="1.1" id="Capa_1" xmlns="http://www.w3.org/2000/svg" xmlns:xlink="http://www.w3.org/1999/xlink" x="0px" y="0px"
	 viewBox="0 0 128 128" style="enable-background:new 0 0 128 128;" xml:space="preserve">
<style type="text/css">
	.st0{fill:#41434C;}
	.st1{fill:url(#SVGID_1_);}
	.st2{fill:url(#SVGID_2_);}
	.st3{fill:url(#SVGID_3_);}
</style>
<g>
	<g>
		<path class="st0" d="M14.7,54c1.5,1.3,2.3,3.1,2.3,5.5c0,2.5-0.8,4.4-2.3,5.7c-1.5,1.3-3.7,2-6.4,2H2.2v7.2H0V52.1h8.3
			C11,52.1,13.2,52.7,14.7,54z M13.1,63.8c1.2-1,1.7-2.4,1.7-4.2c0-1.8-0.6-3.2-1.7-4.1c-1.2-0.9-2.8-1.4-5-1.4h-6v11.2h6
			C10.3,65.3,12,64.8,13.1,63.8z"/>
		<path class="st0" d="M25.6,58.7c1-0.7,2.3-1,3.7-1v2c-1.8,0-3.2,0.5-4.3,1.6c-1.1,1.1-1.7,2.5-1.8,4.3v9H21V57.7h2.1v3.9
			C23.7,60.3,24.5,59.4,25.6,58.7z"/>
		<path class="st0" d="M45.3,60.1c1.4,1.7,2,3.9,1.9,6.7h-14c0.1,1.8,0.8,3.2,2,4.3c1.2,1.1,2.6,1.6,4.4,1.6c1.1,0,2.1-0.2,3-0.6
			c0.9-0.4,1.7-0.9,2.4-1.6l1.2,1.2c-0.8,0.9-1.8,1.6-2.9,2c-1.1,0.5-2.4,0.7-3.8,0.7c-1.6,0-3.1-0.4-4.3-1.1c-1.3-0.7-2.2-1.7-3-3
			c-0.7-1.3-1.1-2.7-1.1-4.4c0-1.6,0.4-3.1,1.1-4.4c0.7-1.3,1.7-2.3,3-3c1.3-0.7,2.7-1.1,4.3-1.1C41.9,57.6,43.9,58.5,45.3,60.1z
			 M45.2,65.1c-0.1-1.8-0.7-3.1-1.7-4.2c-1.1-1-2.4-1.6-4.2-1.6c-1.7,0-3.1,0.5-4.2,1.6c-1.1,1-1.8,2.4-2,4.2H45.2z"/>
		<path class="st0" d="M58.2,59.7c-0.8-0.2-1.6-0.3-2.3-0.3c-1.1,0-1.9,0.2-2.6,0.6c-0.7,0.4-1,1-1,1.9c0,0.6,0.2,1,0.5,1.4
			c0.4,0.4,0.8,0.7,1.3,0.9c0.5,0.2,1.3,0.5,2.2,0.8c1.2,0.3,2.1,0.7,2.8,1c0.7,0.3,1.3,0.8,1.9,1.4c0.5,0.6,0.8,1.5,0.8,2.5
			c0,1.5-0.6,2.7-1.7,3.5c-1.2,0.8-2.6,1.2-4.3,1.2c-1.2,0-2.4-0.2-3.5-0.6c-1.1-0.4-2.1-1-2.9-1.7l0.9-1.5c0.7,0.7,1.6,1.2,2.6,1.6
			c1,0.4,2,0.6,3,0.6c1.1,0,2.1-0.2,2.8-0.7c0.7-0.5,1.1-1.2,1.1-2c0-0.6-0.2-1.1-0.5-1.5c-0.4-0.4-0.8-0.7-1.4-0.9
			c-0.5-0.2-1.3-0.5-2.3-0.8c-1.1-0.3-2.1-0.7-2.8-1c-0.7-0.3-1.3-0.8-1.8-1.4c-0.5-0.6-0.7-1.4-0.7-2.4c0-1.5,0.5-2.6,1.7-3.3
			c1.1-0.7,2.5-1.1,4.1-1.1c1,0,1.9,0.1,2.8,0.4c0.9,0.3,1.7,0.6,2.4,1.1l-0.8,1.6C59.7,60.3,59,60,58.2,59.7z"/>
		<path class="st0" d="M74.5,73.3c-1.2,0.8-2.4,1.2-3.7,1.2c-1.3,0-2.3-0.4-3-1.2c-0.7-0.8-1.1-2-1.1-3.6v-10h-2.4l0-1.7h2.4v-4.3
			h2.1v4.3l5.4,0v1.7h-5.4v9.6c0,2.1,0.8,3.1,2.3,3.1c0.9,0,1.8-0.3,2.8-0.9L74.5,73.3z"/>
		<path class="st0" d="M88.9,74.5l0-2.8c-0.7,1-1.5,1.7-2.6,2.2c-1.1,0.5-2.3,0.7-3.7,0.7c-1.1,0-2.1-0.2-3-0.7
			c-0.9-0.4-1.5-1-2-1.8c-0.5-0.8-0.7-1.6-0.7-2.6c0-1.5,0.6-2.6,1.7-3.4s2.7-1.2,4.6-1.2h5.6v-1.3c0-1.3-0.4-2.3-1.2-3.1
			c-0.8-0.7-1.9-1.1-3.5-1.1c-1.8,0-3.6,0.7-5.4,2l-1-1.5c1.1-0.8,2.2-1.4,3.2-1.7c1-0.4,2.2-0.6,3.5-0.6c2,0,3.6,0.5,4.7,1.5
			c1.1,1,1.7,2.4,1.7,4.2l0,11.1H88.9z M86.8,71.8c1-0.7,1.7-1.7,2.1-2.9v-2.3h-5.4c-1.5,0-2.6,0.2-3.4,0.7
			c-0.8,0.5-1.2,1.2-1.2,2.2c0,1,0.4,1.8,1.1,2.4c0.7,0.6,1.7,0.9,2.9,0.9C84.5,72.8,85.7,72.4,86.8,71.8z"/>
	</g>
	<g>
		<linearGradient id="SVGID_1_" gradientUnits="userSpaceOnUse" x1="95.6663" y1="80.3499" x2="126.4693" y2="49.547">
			<stop  offset="0" style="stop-color:#41434C"/>
			<stop  offset="0.8" style="stop-color:#98c0e0"/>
		</linearGradient>
		<path class="st1" d="M124.7,54.7c1,0,1.8-0.3,2.4-0.9c0.6-0.6,0.9-1.4,0.9-2.4c0-1-0.3-1.8-0.9-2.4c-0.6-0.6-1.4-0.9-2.4-0.9
			c-1,0-1.8,0.3-2.4,0.9c-0.6,0.6-0.9,1.4-0.9,2.4c0,1,0.3,1.8,0.9,2.4C122.9,54.4,123.7,54.7,124.7,54.7z"/>
		<linearGradient id="SVGID_2_" gradientUnits="userSpaceOnUse" x1="101.3697" y1="86.0533" x2="132.1727" y2="55.2504">
			<stop  offset="0" style="stop-color:#41434C"/>
			<stop  offset="0.8" style="stop-color:#98c0e0"/>
		</linearGradient>
		<rect x="121.3" y="56.3" class="st2" width="6.7" height="12.8"/>
		<linearGradient id="SVGID_3_" gradientUnits="userSpaceOnUse" x1="96.493" y1="81.1767" x2="127.296" y2="50.3737">
			<stop  offset="0" style="stop-color:#41434C"/>
			<stop  offset="0.8" style="stop-color:#98c0e0"/>
		</linearGradient>
		<path class="st3" d="M120.3,73.3c-0.7,0.8-1.6,1.1-2.6,1.1c-1.1,0-2-0.4-2.7-1.2c-0.2-0.2-0.4-0.5-0.5-0.8c1.1-0.9,2-1.9,2.8-3.1
			c1.1-1.8,1.6-3.8,1.6-6c0-2.2-0.5-4.2-1.6-6c-1.1-1.8-2.5-3.2-4.4-4.2c-1.9-1-4-1.5-6.3-1.5c-2.3,0-4.4,0.5-6.3,1.5
			c-1.9,1-3.3,2.4-4.4,4.2c-1.1,1.8-1.6,3.8-1.6,6c0,2.2,0.5,4.2,1.6,6c1.1,1.8,2.5,3.2,4.4,4.2c1.9,1,4,1.5,6.3,1.5
			c0.6,0,1.2,0,1.8-0.1c0.1,0.1,0.1,0.3,0.2,0.4c0.9,1.5,2.1,2.6,3.7,3.4c1.6,0.8,3.4,1.2,5.5,1.2c2.1,0,3.9-0.4,5.4-1.2
			c1.6-0.8,2.8-1.9,3.6-3.4c0.8-1.3,1.2-2.9,1.3-4.7h-6.7C121.2,71.8,120.9,72.6,120.3,73.3z M103.9,68.7c-0.8-0.5-1.5-1.3-2-2.2
			c-0.5-0.9-0.8-2-0.8-3.1c0-1.1,0.3-2.2,0.8-3.1c0.5-0.9,1.2-1.7,2-2.2c0.8-0.5,1.8-0.8,2.7-0.8c1,0,1.9,0.3,2.7,0.8
			c0.8,0.5,1.5,1.3,1.9,2.2c0.5,0.9,0.7,2,0.7,3.1c0,1.2-0.2,2.2-0.7,3.1c-0.5,0.9-1.1,1.7-1.9,2.2c-0.8,0.5-1.7,0.8-2.7,0.8
			C105.6,69.6,104.7,69.3,103.9,68.7z"/>
	</g>
</g>
</svg>
