<?xml version="1.0" encoding="utf-8"?>
<!-- Generator: Adobe Illustrator 24.0.1, SVG Export Plug-In . SVG Version: 6.00 Build 0)  -->
<svg version="1.1" id="Capa_1" xmlns="http://www.w3.org/2000/svg" xmlns:xlink="http://www.w3.org/1999/xlink" x="0px" y="0px"
	 viewBox="0 0 128 128" style="enable-background:new 0 0 128 128;" xml:space="preserve">
<g>
	<g>
		<path d="M121.6,0H6.4C2.6,0,0,2.6,0,6.4v83.2C0,93.4,2.6,96,6.4,96h64l38.4,32V96h12.8c3.8,0,6.4-2.6,6.4-6.4V6.4
			C128,2.6,125.4,0,121.6,0z M38.4,19.2c7,0,12.8,5.8,12.8,12.8s-5.8,12.8-12.8,12.8S25.6,39,25.6,32S31.4,19.2,38.4,19.2z
			 M12.8,76.8c0-14.1,11.5-25.6,25.6-25.6S64,62.7,64,76.8H12.8z M96,60.2H70.4c-3.8,0-6.4-2.6-6.4-6.4s2.6-6.4,6.4-6.4H96
			c3.8,0,6.4,2.6,6.4,6.4C102.4,57,99.8,60.2,96,60.2z M108.8,34.6H70.4c-3.8,0-6.4-2.6-6.4-6.4s2.6-6.4,6.4-6.4h38.4
			c3.8,0,6.4,2.6,6.4,6.4C115.2,31.4,112.6,34.6,108.8,34.6z"/>
	</g>
</g>
</svg>
