<?xml version="1.0" encoding="utf-8"?>
<!-- Generator: Adobe Illustrator 24.0.1, SVG Export Plug-In . SVG Version: 6.00 Build 0)  -->
<svg version="1.1" id="Capa_1" xmlns="http://www.w3.org/2000/svg" xmlns:xlink="http://www.w3.org/1999/xlink" x="0px" y="0px"
	 viewBox="0 0 128 128" style="enable-background:new 0 0 128 128;" xml:space="preserve">
<g>
	<g>
		<path d="M78.1,64L126,16.1c1.3-1.3,2-3.1,2-4.9c0-1.9-0.7-3.6-2-5L121.8,2c-1.3-1.3-3.1-2-5-2c-1.9,0-3.6,0.7-4.9,2L64,49.9
			L16.1,2c-1.3-1.3-3.1-2-5-2C9.3,0,7.6,0.7,6.2,2L2,6.2c-2.7,2.7-2.7,7.2,0,9.9L49.9,64L2,111.9c-1.3,1.3-2,3.1-2,5s0.7,3.6,2,5
			l4.2,4.2c1.3,1.3,3.1,2,4.9,2c1.9,0,3.6-0.7,5-2L64,78.1l47.9,47.9c1.3,1.3,3.1,2,4.9,2h0c1.9,0,3.6-0.7,5-2l4.2-4.2
			c1.3-1.3,2-3.1,2-5s-0.7-3.6-2-5L78.1,64z"/>
	</g>
</g>
</svg>
