<?xml version="1.0" encoding="utf-8"?>
<!-- Generator: Adobe Illustrator 24.0.1, SVG Export Plug-In . SVG Version: 6.00 Build 0)  -->
<svg version="1.1" id="Capa_1" xmlns="http://www.w3.org/2000/svg" xmlns:xlink="http://www.w3.org/1999/xlink" x="0px" y="0px"
	 viewBox="0 0 128 128" style="enable-background:new 0 0 128 128;" xml:space="preserve">
<g>
	<g>
		<path d="M121.9,22.1c-0.5-0.5-1.1-0.7-1.9-0.7H94.3L88.4,7.4c-0.8-2.1-2.3-3.8-4.5-5.3C81.8,0.7,79.6,0,77.3,0H50.7
			c-2.2,0-4.4,0.7-6.6,2.2c-2.2,1.4-3.7,3.2-4.5,5.3l-5.8,13.9H8c-0.8,0-1.4,0.3-1.9,0.7c-0.5,0.5-0.7,1.1-0.7,1.9v5.3
			c0,0.8,0.2,1.4,0.7,1.9C6.6,31.7,7.2,32,8,32h8v79.3c0,4.6,1.3,8.5,3.9,11.8c2.6,3.3,5.8,4.9,9.4,4.9h69.3c3.7,0,6.8-1.7,9.4-5
			c2.6-3.4,3.9-7.3,3.9-12V32h8c0.8,0,1.4-0.2,1.9-0.7c0.5-0.5,0.8-1.1,0.8-1.9V24C122.7,23.2,122.4,22.6,121.9,22.1z M49.4,11.6
			c0.4-0.5,0.9-0.8,1.4-0.9h26.4c0.6,0.1,1,0.4,1.4,0.9l4,9.8H45.3L49.4,11.6z M101.3,111c0,1.2-0.2,2.3-0.6,3.4
			c-0.4,1-0.8,1.8-1.2,2.2c-0.4,0.5-0.7,0.7-0.9,0.7H29.3c-0.2,0-0.5-0.2-0.9-0.7c-0.4-0.5-0.8-1.2-1.2-2.2c-0.4-1-0.6-2.2-0.6-3.4
			V32h74.7L101.3,111L101.3,111z"/>
		<path d="M40,101.3h5.3c0.8,0,1.4-0.2,1.9-0.7c0.5-0.5,0.7-1.1,0.7-1.9v-48c0-0.8-0.3-1.4-0.7-1.9c-0.5-0.5-1.1-0.7-1.9-0.7H40
			c-0.8,0-1.4,0.2-1.9,0.7c-0.5,0.5-0.7,1.1-0.7,1.9v48c0,0.8,0.2,1.4,0.7,1.9C38.6,101.1,39.2,101.3,40,101.3z"/>
		<path d="M61.3,101.3h5.3c0.8,0,1.4-0.2,1.9-0.7c0.5-0.5,0.7-1.1,0.7-1.9v-48c0-0.8-0.2-1.4-0.7-1.9c-0.5-0.5-1.1-0.7-1.9-0.7h-5.3
			c-0.8,0-1.4,0.2-1.9,0.7c-0.5,0.5-0.7,1.1-0.7,1.9v48c0,0.8,0.2,1.4,0.7,1.9C59.9,101.1,60.6,101.3,61.3,101.3z"/>
		<path d="M82.7,101.3H88c0.8,0,1.4-0.2,1.9-0.7c0.5-0.5,0.7-1.1,0.7-1.9v-48c0-0.8-0.2-1.4-0.7-1.9C89.4,48.3,88.8,48,88,48h-5.3
			c-0.8,0-1.4,0.2-1.9,0.7c-0.5,0.5-0.7,1.1-0.7,1.9v48c0,0.8,0.2,1.4,0.7,1.9C81.3,101.1,81.9,101.3,82.7,101.3z"/>
	</g>
</g>
</svg>
